<svg width="320" height="536" viewBox="0 0 320 536" fill="none" xmlns="http://www.w3.org/2000/svg">
<g id="center-number">
<path id="Vector" d="M148.426 167.01C62.4816 167.01 0.774719 222.149 0.774719 350.808C0.774719 496.621 62.4816 535.218 148.426 535.218C234.37 535.218 299.753 492.945 299.753 350.808C299.753 198.868 234.37 167.01 148.426 167.01ZM148.991 486.818C89.4638 486.818 58.3647 451.895 58.3647 350.902C58.3647 261.79 90.7369 214.797 150.264 214.797C209.791 214.797 242.163 245.665 242.163 350.902C242.163 449.349 208.517 486.818 148.991 486.818Z" fill="#2F2E41"/>
<path id="Vector_2" d="M168.031 155.982C82.0867 155.982 20.3798 211.121 20.3798 339.78C20.3798 485.593 82.0867 524.19 168.031 524.19C253.975 524.19 319.358 481.917 319.358 339.78C319.358 187.84 253.975 155.982 168.031 155.982ZM168.596 475.79C109.069 475.79 77.9699 440.867 77.9699 339.874C77.9699 250.762 110.342 203.769 169.869 203.769C229.396 203.769 261.768 234.637 261.768 339.874C261.768 438.321 228.123 475.79 168.596 475.79V475.79Z" stroke="#3F3D56" stroke-miterlimit="10"/>
<path id="Vector_3" d="M99.1411 31.1516C106.266 31.1516 112.042 25.3756 112.042 18.2505C112.042 11.1253 106.266 5.34927 99.1411 5.34927C92.016 5.34927 86.2399 11.1253 86.2399 18.2505C86.2399 25.3756 92.016 31.1516 99.1411 31.1516Z" fill="#2F2E41"/>
<path id="Vector_4" d="M130.607 93.7695C150.592 93.7695 166.794 72.7785 166.794 46.8848C166.794 20.991 150.592 0 130.607 0C110.622 0 94.4211 20.991 94.4211 46.8848C94.4211 72.7785 110.622 93.7695 130.607 93.7695Z" fill="#2F2E41"/>
<path id="Vector_5" opacity="0.1" d="M130.607 79.6097C112.48 79.6097 97.4661 62.3392 94.8316 39.8048C94.5576 42.1548 94.4205 44.5188 94.4212 46.8848C94.4212 72.7785 110.622 93.7695 130.607 93.7695C150.592 93.7695 166.794 72.7785 166.794 46.8848C166.794 44.5188 166.657 42.1548 166.383 39.8048C163.749 62.3392 148.735 79.6097 130.607 79.6097Z" fill="black"/>
<path id="Vector_6" d="M204.242 184.189C203.465 187.382 200.114 189.94 196.403 191.727C188.602 195.483 178.978 196.605 169.644 196.981C167.262 197.126 164.873 197.081 162.499 196.849C157.898 196.404 153.582 194.42 150.249 191.217C150.011 191.062 149.816 190.849 149.683 190.599C149.549 190.348 149.481 190.067 149.486 189.783C149.49 189.499 149.566 189.221 149.707 188.975C149.849 188.728 150.05 188.521 150.292 188.374C155.262 182.915 163.555 179.567 171.909 177.157C178.243 175.33 189.29 170.597 196.199 171.235C202.89 171.854 205.223 180.157 204.242 184.189Z" fill="#3F3D56"/>
<path id="Vector_7" opacity="0.1" d="M204.242 184.189C203.465 187.382 200.114 189.94 196.403 191.727C188.602 195.483 178.978 196.605 169.644 196.981C167.262 197.126 164.873 197.081 162.499 196.849C157.898 196.404 153.582 194.42 150.249 191.217C150.011 191.062 149.816 190.849 149.683 190.599C149.549 190.348 149.481 190.067 149.486 189.783C149.49 189.499 149.566 189.221 149.707 188.975C149.849 188.728 150.05 188.521 150.292 188.374C155.262 182.915 163.555 179.567 171.909 177.157C178.243 175.33 189.29 170.597 196.199 171.235C202.89 171.854 205.223 180.157 204.242 184.189Z" fill="black"/>
<path id="Vector_8" d="M105.044 160.321C102.662 164.989 102.231 170.411 103.845 175.396C105.487 180.344 108.56 184.693 112.674 187.893C122.769 195.985 136.662 197.098 149.599 196.986C160.937 196.887 172.259 196.111 183.504 194.662C187.273 194.328 190.976 193.468 194.506 192.108C198.728 190.281 202.439 186.93 203.942 182.582C205.445 178.234 204.378 172.909 200.808 170.008C197.671 167.458 193.345 167.107 189.31 166.865L166.223 165.477C168.504 163.169 171.541 161.863 174.318 160.185C178.004 157.959 180.452 154.22 183.132 150.85C187.26 145.916 191.752 141.297 196.57 137.033C197.322 141.344 200.048 144.883 203.258 147.857C206.467 150.831 210.166 153.226 213.501 156.057C221.58 162.916 227.397 172.224 235.894 178.558C241.738 177.022 247.202 174.294 251.942 170.546L248.64 164.564C248.365 163.949 247.936 163.414 247.396 163.011C246.461 162.436 245.256 162.733 244.17 162.57C241.27 162.135 240.003 158.786 238.865 156.083C235.74 148.661 229.757 142.903 224.647 136.679C220.875 132.084 217.529 127.157 214.651 121.956C212.934 118.854 211.363 115.625 209.033 112.953C206.704 110.281 203.44 108.18 199.895 108.172C196.763 108.166 193.874 109.756 191.181 111.355C182.978 116.227 175.087 121.604 167.551 127.454C163.607 130.516 159.688 133.751 155.061 135.628C153.114 136.419 151.061 136.959 149.192 137.92C145.919 139.605 143.435 142.455 140.761 144.985C131.223 154.008 118.165 159.854 105.044 160.321Z" fill="#3F3D56"/>
<path id="Vector_9" d="M153.32 96.098C153.213 98.8561 152.626 101.575 151.586 104.131C151.059 105.407 150.275 106.56 149.282 107.518C148.29 108.477 147.111 109.221 145.818 109.704C143.983 110.196 142.059 110.258 140.195 109.887C138.57 109.717 137.004 109.183 135.614 108.326C133.449 106.837 132.369 104.182 131.976 101.583C131.583 98.9866 131.759 96.334 131.507 93.7191C131.262 91.6071 130.86 89.5162 130.305 87.4637C130.135 86.7808 129.962 86.1012 129.792 85.4215C129.626 84.7418 129.462 84.0622 129.311 83.3825C129.172 82.7437 129.043 82.1018 128.933 81.4568C128.842 80.9124 128.76 80.3649 128.7 79.8142C128.645 78.1817 128.373 76.5638 127.892 75.003C127.44 73.9908 126.874 73.0333 126.205 72.149C125.919 71.74 125.642 71.3309 125.387 70.9061C124.65 69.8022 124.307 68.4816 124.415 67.1585C124.445 66.9539 124.495 66.7527 124.563 66.5575C124.588 66.482 124.616 66.4065 124.648 66.3341C124.931 66.2572 125.191 66.1124 125.405 65.9123C125.62 65.7121 125.782 65.4626 125.878 65.1855C125.986 64.5902 125.935 63.9769 125.73 63.4077C125.495 62.6123 125.173 61.8451 124.77 61.12C124.506 60.6418 123.609 59.7796 123.603 59.232C123.59 58.1307 125.743 57.2434 126.614 56.8091C129.275 55.4769 132.242 54.8753 135.211 55.0659C137.115 55.1949 139.179 55.7802 140.23 57.3755C141.174 58.8135 141.048 60.6763 141.451 62.3472C141.493 62.5901 141.596 62.8184 141.75 63.0111C141.955 63.1983 142.213 63.317 142.489 63.351C142.955 63.4437 143.433 63.4628 143.905 63.4076H143.908C144.033 63.3977 144.157 63.3799 144.28 63.3541C145.015 63.2185 145.71 62.9184 146.312 62.4762C146.702 62.3724 147.096 62.2874 147.492 62.2213C147.508 62.2197 147.524 62.2165 147.539 62.2119C149.116 67.1867 149.32 72.5202 150.611 77.5863C151.249 80.1068 152.165 82.5958 152.294 85.1886C152.303 85.3018 152.307 85.4183 152.31 85.5347C152.329 86.3686 152.263 87.2087 152.297 88.0394C152.309 88.4135 152.351 88.786 152.423 89.1533C152.564 89.7441 152.74 90.3262 152.949 90.8966L152.958 90.9249C153.018 91.1074 153.074 91.2931 153.122 91.4787C153.156 91.614 153.188 91.7462 153.213 91.8815L153.216 91.8909C153.449 93.2813 153.484 94.6978 153.32 96.098V96.098Z" fill="#FBBEBE"/>
<path id="Vector_10" d="M131.237 63.5619C141.49 63.5619 149.802 55.25 149.802 44.9968C149.802 34.7436 141.49 26.4317 131.237 26.4317C120.983 26.4317 112.672 34.7436 112.672 44.9968C112.672 55.25 120.983 63.5619 131.237 63.5619Z" fill="#FBBEBE"/>
<path id="Vector_11" d="M249.103 146.148C248.565 141.083 246.765 136.234 243.867 132.045C244.349 134.909 244.831 137.771 245.315 140.632C244.714 140.806 244.075 140.801 243.477 140.617C242.879 140.433 242.347 140.079 241.948 139.597C241.166 138.621 240.568 137.511 240.182 136.321C238.073 131.085 235.315 126.135 231.973 121.586C220.154 120.601 208.471 115.702 198.077 109.99C187.681 104.282 177.952 97.4385 167.694 91.4882C165.915 90.4132 164.062 89.4668 162.149 88.6562C158.94 87.3692 155.337 86.7022 152.294 85.1886C152.089 85.0879 151.885 84.981 151.683 84.8708C150.996 84.497 150.345 84.0598 149.739 83.565C149.411 83.2989 149.1 83.0131 148.807 82.7091C147.289 80.9429 146.086 78.9292 145.249 76.7557C143.616 73.1434 143.033 68.7853 141.404 65.1729C142.153 64.4728 142.994 63.8789 143.905 63.4077H143.908C144.04 63.3385 144.172 63.2724 144.308 63.2094C144.953 62.9057 145.624 62.6603 146.312 62.4763C146.702 62.3724 147.096 62.2875 147.492 62.2214C147.508 62.2198 147.524 62.2166 147.539 62.212C149.378 61.9124 151.262 62.0614 153.03 62.6462C155.617 63.521 157.797 65.2673 159.972 66.9193C163.504 69.4079 166.892 72.0952 170.12 74.9684C171.913 76.6864 173.549 78.5744 175.478 80.1352C177.081 81.3722 178.771 82.4922 180.535 83.4863C190.972 89.704 201.411 95.9207 211.85 102.136C215.384 104.241 218.921 106.347 222.376 108.574C227.624 111.96 232.684 115.629 237.741 119.295C240.721 121.454 243.699 123.613 246.677 125.774C247.654 126.397 248.512 127.19 249.21 128.115C249.827 129.165 250.21 130.336 250.333 131.548C251.081 136.444 250.659 141.447 249.103 146.148V146.148Z" fill="#FBBEBE"/>
<path id="Vector_12" d="M157.923 110.06C156.671 115.676 150.994 119.072 148.027 124.005C144.339 130.129 145.843 137.246 147.228 144.26C144.698 146.441 142.167 148.622 139.635 150.802C138.238 152.001 136.841 153.206 135.337 154.267C133.144 155.736 130.852 157.052 128.477 158.206C126.237 159.358 123.996 160.511 121.756 161.664C119.673 162.835 117.466 163.77 115.176 164.452C110.762 165.585 106.073 164.792 101.706 163.48C101.191 163.345 100.695 163.143 100.233 162.879C99.9605 162.716 99.7231 162.501 99.5345 162.246C99.1038 161.474 98.9474 160.579 99.0908 159.707C99.5345 152.357 101.331 145.16 103.122 138.017C104.079 133.732 105.365 129.527 106.97 125.44C108.544 121.938 110.353 118.547 112.385 115.289C114.628 111.191 117.285 107.333 120.315 103.776C121.79 102.407 123.031 100.806 123.99 99.0369C125.107 96.4882 124.676 93.5649 124.903 90.7896C125.076 88.7045 125.629 86.6686 126.536 84.7827V84.7796C127.02 83.7638 127.604 82.7983 128.279 81.8973C128.584 82.6084 128.889 83.3185 129.195 84.0275C129.396 84.4932 129.595 84.9579 129.792 85.4215C130.05 86.0194 130.306 86.6152 130.56 87.2088C131.293 88.9143 132.025 90.6187 132.757 92.3221C133.547 94.4675 134.672 96.4739 136.092 98.2661C136.741 99.1838 137.617 99.9176 138.634 100.396C139.651 100.874 140.775 101.08 141.895 100.994C143.016 100.908 144.095 100.533 145.028 99.9055C145.96 99.2779 146.714 98.4192 147.215 97.4133C148.273 95.5357 149.039 93.5081 149.487 91.4001C150.109 88.8335 150.194 86.1663 149.739 83.565C148.981 78.5556 146.85 73.4392 145.302 68.7853C144.672 67.2336 144.307 65.587 144.223 63.9143C144.226 63.7264 144.245 63.539 144.279 63.3542C144.289 63.307 144.298 63.2567 144.308 63.2095C144.953 62.9058 145.624 62.6604 146.312 62.4763C146.702 62.3725 147.096 62.2875 147.492 62.2214C148.855 69.5971 150.219 76.9728 151.586 84.3485C151.617 84.5216 151.652 84.6947 151.684 84.8709C151.879 85.9281 152.077 86.9854 152.297 88.0395C152.495 88.9961 152.709 89.9495 152.948 90.8967L152.958 90.925C153.04 91.246 153.125 91.5638 153.213 91.8816L153.216 91.891C153.458 92.7595 153.729 93.6216 154.034 94.4712C155.884 99.5908 159.11 104.745 157.923 110.06Z" fill="#5EC79B"/>
<path id="Vector_13" d="M233.267 188.993C233.209 190.075 233.419 191.154 233.877 192.136C235.039 194.259 237.827 194.742 240.24 194.941C254.332 196.099 268.51 195.667 282.505 193.653C283.265 193.601 284.001 193.372 284.657 192.985C286.647 191.59 285.42 188.19 283.247 187.102C281.074 186.013 278.496 186.276 276.112 185.804C273.743 185.208 271.488 184.23 269.434 182.908C264.599 180.13 259.835 177.234 255.141 174.22C252.346 172.425 249.048 170.51 245.901 171.574C237.376 174.458 233.211 179.796 233.267 188.993Z" fill="#3F3D56"/>
<path id="Vector_14" d="M129.383 82.9892V82.9923C129.361 83.1245 129.339 83.2535 129.311 83.3825C129.276 83.5965 129.235 83.8136 129.195 84.0275C128.804 86.0256 128.326 88.0143 127.775 89.9904C126.265 95.4498 124.242 100.821 122.234 106.114C116.847 120.305 111.459 134.497 106.07 148.691C104.711 152.265 103.354 155.843 101.809 159.345C101.293 160.513 100.762 161.689 100.233 162.879C98.3387 167.136 96.52 171.532 95.9158 176.063C95.3525 179.045 95.2876 182.1 95.7238 185.103C96.328 188.074 98.1311 190.975 100.954 192.073C102.332 192.611 104.305 193.332 103.927 194.764C103.723 195.55 102.829 195.934 102.027 196.066C100.967 196.235 99.8832 196.169 98.8521 195.872C97.8211 195.575 96.868 195.055 96.0605 194.348C94.5533 193.011 93.3954 190.931 91.391 190.708C90.0033 190.557 88.7257 191.387 87.4545 191.969C82.2689 194.339 76.2273 192.681 70.7805 190.997C71.2085 188.791 73.4237 187.338 75.6232 186.897C77.8227 186.453 80.0976 186.768 82.3412 186.708C83.0596 186.747 83.7726 186.563 84.3833 186.183C84.9308 185.68 85.3146 185.025 85.4846 184.301C86.9298 180.019 88.0047 175.621 88.6974 171.155C89.4211 166.488 89.7232 161.749 90.7553 157.139C91.5577 153.543 92.7975 150.06 93.861 146.529C95.9177 139.26 97.6064 131.892 98.9208 124.452C99.5853 121.362 100.061 118.233 100.346 115.085C100.526 112.473 100.441 109.849 100.692 107.246C101.115 103.861 101.821 100.517 102.804 97.2497C103.767 93.6845 104.728 90.1215 105.689 86.5606C107.115 81.29 108.644 75.8149 112.256 71.7179C113.511 70.2756 115.048 69.1064 116.773 68.2826C118.498 67.4588 120.374 66.998 122.285 66.9288C123.001 66.9279 123.715 67.0049 124.415 67.1585C124.531 67.1868 124.648 67.2151 124.764 67.2466C125.526 67.4459 126.258 67.7487 126.938 68.1465C128.052 67.4385 128.619 67.6871 129.358 68.779C130.006 69.9345 130.312 71.2509 130.239 72.5738C130.302 76.0655 130.015 79.5546 129.383 82.9892Z" fill="#FBBEBE"/>
<path id="Vector_15" d="M130.607 87.1616L130.56 87.2088L130.305 87.4637L127.775 89.9904L126.536 84.7827L122.285 66.9287C123.001 66.9279 123.715 67.0049 124.415 67.1584C124.445 66.9539 124.495 66.7527 124.563 66.5574L124.764 67.2465L126.205 72.149L128.933 81.4567L129.383 82.9891V82.9923L130.607 87.1616Z" fill="#5EC79B"/>
<path id="Vector_16" d="M146.661 30.2028C146.659 31.856 146.331 33.4926 145.696 35.019C145.061 36.5454 144.132 37.9317 142.961 39.0986C142.537 39.5234 142.082 39.9165 141.601 40.275C139.429 41.9119 136.784 42.7979 134.065 42.7991H118.969C115.633 42.794 112.436 41.4652 110.079 39.1047C107.722 36.7441 106.398 33.5447 106.398 30.2089C106.398 26.8732 107.722 23.6737 110.079 21.3132C112.436 18.9526 115.633 17.6239 118.969 17.6187H134.065C137.401 17.6274 140.598 18.9556 142.958 21.3134C145.318 23.6711 146.649 26.8668 146.661 30.2028V30.2028Z" fill="#2F2E41"/>
<path id="Vector_17" d="M160.815 31.1516C167.94 31.1516 173.716 25.3756 173.716 18.2505C173.716 11.1253 167.94 5.34927 160.815 5.34927C153.69 5.34927 147.914 11.1253 147.914 18.2505C147.914 25.3756 153.69 31.1516 160.815 31.1516Z" fill="#2F2E41"/>
<path id="Vector_18" opacity="0.1" d="M160.5 5.34927C160.342 5.34927 160.185 5.35556 160.028 5.36121C163.366 5.48254 166.526 6.89362 168.844 9.29756C171.162 11.7015 172.457 14.9109 172.457 18.2505C172.457 21.59 171.162 24.7994 168.844 27.2033C166.526 29.6073 163.366 31.0184 160.028 31.1397C160.185 31.1453 160.342 31.1516 160.5 31.1516C163.922 31.1516 167.203 29.7924 169.623 27.373C172.042 24.9535 173.401 21.6721 173.401 18.2505C173.401 14.8289 172.042 11.5474 169.623 9.12794C167.203 6.70851 163.922 5.34927 160.5 5.34927V5.34927Z" fill="black"/>
<path id="Vector_19" opacity="0.1" d="M99.1411 5.34927C99.2993 5.34927 99.4561 5.35556 99.6131 5.36121C96.2757 5.48254 93.1155 6.89362 90.7974 9.29756C88.4793 11.7015 87.1839 14.9109 87.1839 18.2505C87.1839 21.59 88.4793 24.7994 90.7974 27.2033C93.1155 29.6073 96.2757 31.0184 99.6131 31.1397C99.4561 31.1453 99.2993 31.1516 99.1411 31.1516C95.7214 31.1486 92.4429 29.7881 90.0259 27.3689C87.6089 24.9498 86.2513 21.6701 86.2513 18.2505C86.2513 14.8308 87.6089 11.5511 90.0259 9.13196C92.4429 6.71284 95.7214 5.35228 99.1411 5.34927Z" fill="black"/>
<path id="Vector_20" opacity="0.1" d="M141.601 40.275C139.429 41.9119 136.784 42.7979 134.065 42.7991H118.969C116.25 42.7978 113.605 41.9119 111.433 40.275H141.601Z" fill="black"/>
<path id="Vector_21" d="M239.086 133.756C239.086 133.756 242.338 143.128 245.315 140.632L242.942 128.382L239.086 133.756Z" fill="#FBBEBE"/>
<path id="Vector_22" d="M108.946 341.116C118.335 341.116 125.946 331.266 125.946 319.116C125.946 306.965 118.335 297.116 108.946 297.116C99.5572 297.116 91.946 306.965 91.946 319.116C91.946 331.266 99.5572 341.116 108.946 341.116Z" fill="#2F2E41"/>
<path id="Vector_23" d="M201.446 341.616C210.835 341.616 218.446 331.766 218.446 319.616C218.446 307.465 210.835 297.616 201.446 297.616C192.057 297.616 184.446 307.465 184.446 319.616C184.446 331.766 192.057 341.616 201.446 341.616Z" fill="#2F2E41"/>
<path id="Vector_24" d="M188.446 384.616C188.446 394.556 174.566 402.616 157.446 402.616C140.326 402.616 126.446 394.556 126.446 384.616C126.446 376.006 136.856 368.806 150.766 367.046C152.981 366.753 155.212 366.61 157.446 366.616C161.189 366.603 164.922 367.006 168.576 367.816C180.196 370.406 188.446 376.956 188.446 384.616Z" fill="#2F2E41"/>
<path id="Vector_25" d="M112.946 336.116C122.335 336.116 129.946 326.266 129.946 314.116C129.946 301.965 122.335 292.116 112.946 292.116C103.557 292.116 95.946 301.965 95.946 314.116C95.946 326.266 103.557 336.116 112.946 336.116Z" stroke="#3F3D56" stroke-miterlimit="10"/>
<path id="Vector_26" d="M205.446 336.616C214.835 336.616 222.446 326.766 222.446 314.616C222.446 302.465 214.835 292.616 205.446 292.616C196.057 292.616 188.446 302.465 188.446 314.616C188.446 326.766 196.057 336.616 205.446 336.616Z" stroke="#3F3D56" stroke-miterlimit="10"/>
<path id="Vector_27" d="M161.446 397.616C178.567 397.616 192.446 389.557 192.446 379.616C192.446 369.674 178.567 361.616 161.446 361.616C144.325 361.616 130.446 369.674 130.446 379.616C130.446 389.557 144.325 397.616 161.446 397.616Z" stroke="#3F3D56" stroke-miterlimit="10"/>
<path id="Vector_28" d="M168.946 369.316C168.954 370.573 168.482 371.786 167.626 372.708C167.222 373.149 166.73 373.502 166.183 373.744C165.636 373.986 165.044 374.113 164.446 374.116H154.446C153.214 374.073 152.049 373.544 151.205 372.644C150.362 371.745 149.909 370.548 149.946 369.316C149.941 368.341 150.226 367.386 150.766 366.574C152.979 366.263 155.211 366.109 157.446 366.116C161.193 366.103 164.929 366.533 168.576 367.396C168.823 368.005 168.948 368.658 168.946 369.316V369.316Z" fill="white"/>
<path id="Vector_29" d="M112.946 313.116C115.707 313.116 117.946 310.877 117.946 308.116C117.946 305.354 115.707 303.116 112.946 303.116C110.185 303.116 107.946 305.354 107.946 308.116C107.946 310.877 110.185 313.116 112.946 313.116Z" fill="white"/>
<path id="Vector_30" d="M205.946 313.116C208.707 313.116 210.946 310.877 210.946 308.116C210.946 305.354 208.707 303.116 205.946 303.116C203.185 303.116 200.946 305.354 200.946 308.116C200.946 310.877 203.185 313.116 205.946 313.116Z" fill="white"/>
<path id="Vector_31" opacity="0.3" d="M210.946 360.116C213.707 360.116 215.946 357.877 215.946 355.116C215.946 352.354 213.707 350.116 210.946 350.116C208.185 350.116 205.946 352.354 205.946 355.116C205.946 357.877 208.185 360.116 210.946 360.116Z" fill="#5EC79B"/>
<path id="Vector_32" opacity="0.3" d="M88.946 360.116C91.7074 360.116 93.946 357.877 93.946 355.116C93.946 352.354 91.7074 350.116 88.946 350.116C86.1846 350.116 83.946 352.354 83.946 355.116C83.946 357.877 86.1846 360.116 88.946 360.116Z" fill="#5EC79B"/>
</g>
</svg>
