<svg width="1350" height="998" viewBox="0 0 1350 998" fill="none" xmlns="http://www.w3.org/2000/svg">
<path d="M329.451 7.46055C331.295 2.94845 335.685 0 340.559 0H1151.24C1155.7 0 1159.8 2.47687 1161.87 6.43001L1203.79 86.43C1207.98 94.4201 1202.18 104 1193.16 104H307.867C299.339 104 293.533 95.3546 296.759 87.4606L329.451 7.46055Z" fill="#B97639"/>
<path d="M296 93H1205V302H296V93Z" fill="#FAE59C"/>
<rect x="340" y="12" width="161" height="15" rx="7.5" fill="#E79B55"/>
<rect x="714" y="178" width="84" height="99" rx="4" fill="#E79B55"/>
<rect x="1115" y="82" width="13" height="68" rx="6.5" transform="rotate(-90 1115 82)" fill="#E79B55"/>
<rect x="1143.34" y="22.7901" width="12.5965" height="68.4935" rx="6.29825" transform="rotate(-27.3649 1143.34 22.7901)" fill="#E79B55"/>
<rect x="313" y="125" width="37" height="42" rx="5" fill="#C4E8D6"/>
<rect x="314" y="139.303" width="19.1931" height="3.81854" rx="1.90927" transform="rotate(-46.3632 314 139.303)" fill="#DBE9E2"/>
<rect x="332" y="163.891" width="19.1931" height="3.81854" rx="1.90927" transform="rotate(-46.3632 332 163.891)" fill="#DBE9E2"/>
<rect x="332" y="153.891" width="19.1931" height="3.81854" rx="1.90927" transform="rotate(-46.3632 332 153.891)" fill="#DBE9E2"/>
<rect x="315" y="149.891" width="32.2041" height="3.81854" rx="1.90927" transform="rotate(-46.3632 315 149.891)" fill="#DBE9E2"/>
<rect x="369" y="125" width="37" height="42" rx="5" fill="#C4E8D6"/>
<rect x="370" y="139.303" width="19.1931" height="3.81854" rx="1.90927" transform="rotate(-46.3632 370 139.303)" fill="#DBE9E2"/>
<rect x="388" y="163.891" width="19.1931" height="3.81854" rx="1.90927" transform="rotate(-46.3632 388 163.891)" fill="#DBE9E2"/>
<rect x="388" y="153.891" width="19.1931" height="3.81854" rx="1.90927" transform="rotate(-46.3632 388 153.891)" fill="#DBE9E2"/>
<rect x="371" y="149.891" width="32.2041" height="3.81854" rx="1.90927" transform="rotate(-46.3632 371 149.891)" fill="#DBE9E2"/>
<rect x="425" y="125" width="37" height="42" rx="5" fill="#C4E8D6"/>
<rect x="426" y="139.303" width="19.1931" height="3.81854" rx="1.90927" transform="rotate(-46.3632 426 139.303)" fill="#DBE9E2"/>
<rect x="444" y="163.891" width="19.1931" height="3.81854" rx="1.90927" transform="rotate(-46.3632 444 163.891)" fill="#DBE9E2"/>
<rect x="444" y="153.891" width="19.1931" height="3.81854" rx="1.90927" transform="rotate(-46.3632 444 153.891)" fill="#DBE9E2"/>
<rect x="427" y="149.891" width="32.2041" height="3.81854" rx="1.90927" transform="rotate(-46.3632 427 149.891)" fill="#DBE9E2"/>
<rect x="313" y="176" width="37" height="42" rx="5" fill="#C4E8D6"/>
<rect x="314" y="190.303" width="19.1931" height="3.81854" rx="1.90927" transform="rotate(-46.3632 314 190.303)" fill="#DBE9E2"/>
<rect x="332" y="214.891" width="19.1931" height="3.81854" rx="1.90927" transform="rotate(-46.3632 332 214.891)" fill="#DBE9E2"/>
<rect x="332" y="204.891" width="19.1931" height="3.81854" rx="1.90927" transform="rotate(-46.3632 332 204.891)" fill="#DBE9E2"/>
<rect x="315" y="200.891" width="32.2041" height="3.81854" rx="1.90927" transform="rotate(-46.3632 315 200.891)" fill="#DBE9E2"/>
<rect x="369" y="176" width="37" height="42" rx="5" fill="#C4E8D6"/>
<rect x="370" y="190.303" width="19.1931" height="3.81854" rx="1.90927" transform="rotate(-46.3632 370 190.303)" fill="#DBE9E2"/>
<rect x="388" y="214.891" width="19.1931" height="3.81854" rx="1.90927" transform="rotate(-46.3632 388 214.891)" fill="#DBE9E2"/>
<rect x="388" y="204.891" width="19.1931" height="3.81854" rx="1.90927" transform="rotate(-46.3632 388 204.891)" fill="#DBE9E2"/>
<rect x="371" y="200.891" width="32.2041" height="3.81854" rx="1.90927" transform="rotate(-46.3632 371 200.891)" fill="#DBE9E2"/>
<rect x="425" y="176" width="37" height="42" rx="5" fill="#C4E8D6"/>
<rect x="426" y="190.303" width="19.1931" height="3.81854" rx="1.90927" transform="rotate(-46.3632 426 190.303)" fill="#DBE9E2"/>
<rect x="444" y="214.891" width="19.1931" height="3.81854" rx="1.90927" transform="rotate(-46.3632 444 214.891)" fill="#DBE9E2"/>
<rect x="444" y="204.891" width="19.1931" height="3.81854" rx="1.90927" transform="rotate(-46.3632 444 204.891)" fill="#DBE9E2"/>
<rect x="427" y="200.891" width="32.2041" height="3.81854" rx="1.90927" transform="rotate(-46.3632 427 200.891)" fill="#DBE9E2"/>
<rect x="314" y="227" width="37" height="42" rx="5" fill="#C4E8D6"/>
<rect x="315" y="241.303" width="19.1931" height="3.81854" rx="1.90927" transform="rotate(-46.3632 315 241.303)" fill="#DBE9E2"/>
<rect x="333" y="265.891" width="19.1931" height="3.81854" rx="1.90927" transform="rotate(-46.3632 333 265.891)" fill="#DBE9E2"/>
<rect x="333" y="255.891" width="19.1931" height="3.81854" rx="1.90927" transform="rotate(-46.3632 333 255.891)" fill="#DBE9E2"/>
<rect x="316" y="251.891" width="32.2041" height="3.81854" rx="1.90927" transform="rotate(-46.3632 316 251.891)" fill="#DBE9E2"/>
<rect x="370" y="227" width="37" height="42" rx="5" fill="#C4E8D6"/>
<rect x="371" y="241.303" width="19.1931" height="3.81854" rx="1.90927" transform="rotate(-46.3632 371 241.303)" fill="#DBE9E2"/>
<rect x="389" y="265.891" width="19.1931" height="3.81854" rx="1.90927" transform="rotate(-46.3632 389 265.891)" fill="#DBE9E2"/>
<rect x="389" y="255.891" width="19.1931" height="3.81854" rx="1.90927" transform="rotate(-46.3632 389 255.891)" fill="#DBE9E2"/>
<rect x="372" y="251.891" width="32.2041" height="3.81854" rx="1.90927" transform="rotate(-46.3632 372 251.891)" fill="#DBE9E2"/>
<rect x="426" y="227" width="37" height="42" rx="5" fill="#C4E8D6"/>
<rect x="427" y="241.303" width="19.1931" height="3.81854" rx="1.90927" transform="rotate(-46.3632 427 241.303)" fill="#DBE9E2"/>
<rect x="445" y="265.891" width="19.1931" height="3.81854" rx="1.90927" transform="rotate(-46.3632 445 265.891)" fill="#DBE9E2"/>
<rect x="445" y="255.891" width="19.1931" height="3.81854" rx="1.90927" transform="rotate(-46.3632 445 255.891)" fill="#DBE9E2"/>
<rect x="428" y="251.891" width="32.2041" height="3.81854" rx="1.90927" transform="rotate(-46.3632 428 251.891)" fill="#DBE9E2"/>
<rect x="640" y="127" width="37" height="42" rx="5" fill="#C4E8D6"/>
<rect x="641" y="141.303" width="19.1931" height="3.81854" rx="1.90927" transform="rotate(-46.3632 641 141.303)" fill="#DBE9E2"/>
<rect x="659" y="165.891" width="19.1931" height="3.81854" rx="1.90927" transform="rotate(-46.3632 659 165.891)" fill="#DBE9E2"/>
<rect x="659" y="155.891" width="19.1931" height="3.81854" rx="1.90927" transform="rotate(-46.3632 659 155.891)" fill="#DBE9E2"/>
<rect x="642" y="151.891" width="32.2041" height="3.81854" rx="1.90927" transform="rotate(-46.3632 642 151.891)" fill="#DBE9E2"/>
<rect x="640" y="178" width="37" height="42" rx="5" fill="#C4E8D6"/>
<rect x="641" y="192.303" width="19.1931" height="3.81854" rx="1.90927" transform="rotate(-46.3632 641 192.303)" fill="#DBE9E2"/>
<rect x="659" y="216.891" width="19.1931" height="3.81854" rx="1.90927" transform="rotate(-46.3632 659 216.891)" fill="#DBE9E2"/>
<rect x="659" y="206.891" width="19.1931" height="3.81854" rx="1.90927" transform="rotate(-46.3632 659 206.891)" fill="#DBE9E2"/>
<rect x="642" y="202.891" width="32.2041" height="3.81854" rx="1.90927" transform="rotate(-46.3632 642 202.891)" fill="#DBE9E2"/>
<rect x="641" y="229" width="37" height="42" rx="5" fill="#C4E8D6"/>
<rect x="642" y="243.303" width="19.1931" height="3.81854" rx="1.90927" transform="rotate(-46.3632 642 243.303)" fill="#DBE9E2"/>
<rect x="660" y="267.891" width="19.1931" height="3.81854" rx="1.90927" transform="rotate(-46.3632 660 267.891)" fill="#DBE9E2"/>
<rect x="660" y="257.891" width="19.1931" height="3.81854" rx="1.90927" transform="rotate(-46.3632 660 257.891)" fill="#DBE9E2"/>
<rect x="643" y="253.891" width="32.2041" height="3.81854" rx="1.90927" transform="rotate(-46.3632 643 253.891)" fill="#DBE9E2"/>
<rect x="480" y="127" width="37" height="42" rx="5" fill="#C4E8D6"/>
<rect x="481" y="141.303" width="19.1931" height="3.81854" rx="1.90927" transform="rotate(-46.3632 481 141.303)" fill="#DBE9E2"/>
<rect x="499" y="165.891" width="19.1931" height="3.81854" rx="1.90927" transform="rotate(-46.3632 499 165.891)" fill="#DBE9E2"/>
<rect x="499" y="155.891" width="19.1931" height="3.81854" rx="1.90927" transform="rotate(-46.3632 499 155.891)" fill="#DBE9E2"/>
<rect x="482" y="151.891" width="32.2041" height="3.81854" rx="1.90927" transform="rotate(-46.3632 482 151.891)" fill="#DBE9E2"/>
<rect x="536" y="127" width="37" height="42" rx="5" fill="#C4E8D6"/>
<rect x="537" y="141.303" width="19.1931" height="3.81854" rx="1.90927" transform="rotate(-46.3632 537 141.303)" fill="#DBE9E2"/>
<rect x="555" y="165.891" width="19.1931" height="3.81854" rx="1.90927" transform="rotate(-46.3632 555 165.891)" fill="#DBE9E2"/>
<rect x="555" y="155.891" width="19.1931" height="3.81854" rx="1.90927" transform="rotate(-46.3632 555 155.891)" fill="#DBE9E2"/>
<rect x="538" y="151.891" width="32.2041" height="3.81854" rx="1.90927" transform="rotate(-46.3632 538 151.891)" fill="#DBE9E2"/>
<rect x="592" y="127" width="37" height="42" rx="5" fill="#C4E8D6"/>
<rect x="593" y="141.303" width="19.1931" height="3.81854" rx="1.90927" transform="rotate(-46.3632 593 141.303)" fill="#DBE9E2"/>
<rect x="611" y="165.891" width="19.1931" height="3.81854" rx="1.90927" transform="rotate(-46.3632 611 165.891)" fill="#DBE9E2"/>
<rect x="611" y="155.891" width="19.1931" height="3.81854" rx="1.90927" transform="rotate(-46.3632 611 155.891)" fill="#DBE9E2"/>
<rect x="594" y="151.891" width="32.2041" height="3.81854" rx="1.90927" transform="rotate(-46.3632 594 151.891)" fill="#DBE9E2"/>
<rect x="480" y="178" width="37" height="42" rx="5" fill="#C4E8D6"/>
<rect x="481" y="192.303" width="19.1931" height="3.81854" rx="1.90927" transform="rotate(-46.3632 481 192.303)" fill="#DBE9E2"/>
<rect x="499" y="216.891" width="19.1931" height="3.81854" rx="1.90927" transform="rotate(-46.3632 499 216.891)" fill="#DBE9E2"/>
<rect x="499" y="206.891" width="19.1931" height="3.81854" rx="1.90927" transform="rotate(-46.3632 499 206.891)" fill="#DBE9E2"/>
<rect x="482" y="202.891" width="32.2041" height="3.81854" rx="1.90927" transform="rotate(-46.3632 482 202.891)" fill="#DBE9E2"/>
<rect x="536" y="178" width="37" height="42" rx="5" fill="#C4E8D6"/>
<rect x="537" y="192.303" width="19.1931" height="3.81854" rx="1.90927" transform="rotate(-46.3632 537 192.303)" fill="#DBE9E2"/>
<rect x="555" y="216.891" width="19.1931" height="3.81854" rx="1.90927" transform="rotate(-46.3632 555 216.891)" fill="#DBE9E2"/>
<rect x="555" y="206.891" width="19.1931" height="3.81854" rx="1.90927" transform="rotate(-46.3632 555 206.891)" fill="#DBE9E2"/>
<rect x="538" y="202.891" width="32.2041" height="3.81854" rx="1.90927" transform="rotate(-46.3632 538 202.891)" fill="#DBE9E2"/>
<rect x="592" y="178" width="37" height="42" rx="5" fill="#C4E8D6"/>
<rect x="593" y="192.303" width="19.1931" height="3.81854" rx="1.90927" transform="rotate(-46.3632 593 192.303)" fill="#DBE9E2"/>
<rect x="611" y="216.891" width="19.1931" height="3.81854" rx="1.90927" transform="rotate(-46.3632 611 216.891)" fill="#DBE9E2"/>
<rect x="611" y="206.891" width="19.1931" height="3.81854" rx="1.90927" transform="rotate(-46.3632 611 206.891)" fill="#DBE9E2"/>
<rect x="594" y="202.891" width="32.2041" height="3.81854" rx="1.90927" transform="rotate(-46.3632 594 202.891)" fill="#DBE9E2"/>
<rect x="481" y="229" width="37" height="42" rx="5" fill="#C4E8D6"/>
<rect x="482" y="243.303" width="19.1931" height="3.81854" rx="1.90927" transform="rotate(-46.3632 482 243.303)" fill="#DBE9E2"/>
<rect x="500" y="267.891" width="19.1931" height="3.81854" rx="1.90927" transform="rotate(-46.3632 500 267.891)" fill="#DBE9E2"/>
<rect x="500" y="257.891" width="19.1931" height="3.81854" rx="1.90927" transform="rotate(-46.3632 500 257.891)" fill="#DBE9E2"/>
<rect x="483" y="253.891" width="32.2041" height="3.81854" rx="1.90927" transform="rotate(-46.3632 483 253.891)" fill="#DBE9E2"/>
<rect x="537" y="229" width="37" height="42" rx="5" fill="#C4E8D6"/>
<rect x="538" y="243.303" width="19.1931" height="3.81854" rx="1.90927" transform="rotate(-46.3632 538 243.303)" fill="#DBE9E2"/>
<rect x="556" y="267.891" width="19.1931" height="3.81854" rx="1.90927" transform="rotate(-46.3632 556 267.891)" fill="#DBE9E2"/>
<rect x="556" y="257.891" width="19.1931" height="3.81854" rx="1.90927" transform="rotate(-46.3632 556 257.891)" fill="#DBE9E2"/>
<rect x="539" y="253.891" width="32.2041" height="3.81854" rx="1.90927" transform="rotate(-46.3632 539 253.891)" fill="#DBE9E2"/>
<rect x="593" y="229" width="37" height="42" rx="5" fill="#C4E8D6"/>
<rect x="594" y="243.303" width="19.1931" height="3.81854" rx="1.90927" transform="rotate(-46.3632 594 243.303)" fill="#DBE9E2"/>
<rect x="612" y="267.891" width="19.1931" height="3.81854" rx="1.90927" transform="rotate(-46.3632 612 267.891)" fill="#DBE9E2"/>
<rect x="612" y="257.891" width="19.1931" height="3.81854" rx="1.90927" transform="rotate(-46.3632 612 257.891)" fill="#DBE9E2"/>
<rect x="595" y="253.891" width="32.2041" height="3.81854" rx="1.90927" transform="rotate(-46.3632 595 253.891)" fill="#DBE9E2"/>
<rect x="592" y="127" width="37" height="42" rx="5" fill="#C4E8D6"/>
<rect x="611" y="165.891" width="19.1931" height="3.81854" rx="1.90927" transform="rotate(-46.3632 611 165.891)" fill="#DBE9E2"/>
<rect x="611" y="155.891" width="19.1931" height="3.81854" rx="1.90927" transform="rotate(-46.3632 611 155.891)" fill="#DBE9E2"/>
<rect x="594" y="151.891" width="32.2041" height="3.81854" rx="1.90927" transform="rotate(-46.3632 594 151.891)" fill="#DBE9E2"/>
<rect x="592" y="178" width="37" height="42" rx="5" fill="#C4E8D6"/>
<rect x="611" y="216.891" width="19.1931" height="3.81854" rx="1.90927" transform="rotate(-46.3632 611 216.891)" fill="#DBE9E2"/>
<rect x="611" y="206.891" width="19.1931" height="3.81854" rx="1.90927" transform="rotate(-46.3632 611 206.891)" fill="#DBE9E2"/>
<rect x="594" y="202.891" width="32.2041" height="3.81854" rx="1.90927" transform="rotate(-46.3632 594 202.891)" fill="#DBE9E2"/>
<rect x="593" y="229" width="37" height="42" rx="5" fill="#C4E8D6"/>
<rect x="594" y="243.303" width="19.1931" height="3.81854" rx="1.90927" transform="rotate(-46.3632 594 243.303)" fill="#DBE9E2"/>
<rect x="612" y="267.891" width="19.1931" height="3.81854" rx="1.90927" transform="rotate(-46.3632 612 267.891)" fill="#DBE9E2"/>
<rect x="612" y="257.891" width="19.1931" height="3.81854" rx="1.90927" transform="rotate(-46.3632 612 257.891)" fill="#DBE9E2"/>
<rect x="595" y="253.891" width="32.2041" height="3.81854" rx="1.90927" transform="rotate(-46.3632 595 253.891)" fill="#DBE9E2"/>
<rect x="592" y="127" width="37" height="42" rx="5" fill="#C4E8D6"/>
<rect x="593" y="141.303" width="19.1931" height="3.81854" rx="1.90927" transform="rotate(-46.3632 593 141.303)" fill="#DBE9E2"/>
<rect x="611" y="165.891" width="19.1931" height="3.81854" rx="1.90927" transform="rotate(-46.3632 611 165.891)" fill="#DBE9E2"/>
<rect x="611" y="155.891" width="19.1931" height="3.81854" rx="1.90927" transform="rotate(-46.3632 611 155.891)" fill="#DBE9E2"/>
<rect x="594" y="151.891" width="32.2041" height="3.81854" rx="1.90927" transform="rotate(-46.3632 594 151.891)" fill="#DBE9E2"/>
<rect x="592" y="178" width="37" height="42" rx="5" fill="#C4E8D6"/>
<rect x="593" y="192.303" width="19.1931" height="3.81854" rx="1.90927" transform="rotate(-46.3632 593 192.303)" fill="#DBE9E2"/>
<rect x="611" y="216.891" width="19.1931" height="3.81854" rx="1.90927" transform="rotate(-46.3632 611 216.891)" fill="#DBE9E2"/>
<rect x="611" y="206.891" width="19.1931" height="3.81854" rx="1.90927" transform="rotate(-46.3632 611 206.891)" fill="#DBE9E2"/>
<rect x="594" y="202.891" width="32.2041" height="3.81854" rx="1.90927" transform="rotate(-46.3632 594 202.891)" fill="#DBE9E2"/>
<rect x="593" y="229" width="37" height="42" rx="5" fill="#C4E8D6"/>
<rect x="594" y="243.303" width="19.1931" height="3.81854" rx="1.90927" transform="rotate(-46.3632 594 243.303)" fill="#DBE9E2"/>
<rect x="612" y="267.891" width="19.1931" height="3.81854" rx="1.90927" transform="rotate(-46.3632 612 267.891)" fill="#DBE9E2"/>
<rect x="612" y="257.891" width="19.1931" height="3.81854" rx="1.90927" transform="rotate(-46.3632 612 257.891)" fill="#DBE9E2"/>
<rect x="595" y="253.891" width="32.2041" height="3.81854" rx="1.90927" transform="rotate(-46.3632 595 253.891)" fill="#DBE9E2"/>
<rect x="592" y="127" width="37" height="42" rx="5" fill="#C4E8D6"/>
<rect x="611" y="165.891" width="19.1931" height="3.81854" rx="1.90927" transform="rotate(-46.3632 611 165.891)" fill="#DBE9E2"/>
<rect x="611" y="155.891" width="19.1931" height="3.81854" rx="1.90927" transform="rotate(-46.3632 611 155.891)" fill="#DBE9E2"/>
<rect x="594" y="151.891" width="32.2041" height="3.81854" rx="1.90927" transform="rotate(-46.3632 594 151.891)" fill="#DBE9E2"/>
<rect x="592" y="178" width="37" height="42" rx="5" fill="#C4E8D6"/>
<rect x="611" y="216.891" width="19.1931" height="3.81854" rx="1.90927" transform="rotate(-46.3632 611 216.891)" fill="#DBE9E2"/>
<rect x="611" y="206.891" width="19.1931" height="3.81854" rx="1.90927" transform="rotate(-46.3632 611 206.891)" fill="#DBE9E2"/>
<rect x="594" y="202.891" width="32.2041" height="3.81854" rx="1.90927" transform="rotate(-46.3632 594 202.891)" fill="#DBE9E2"/>
<rect x="593" y="229" width="37" height="42" rx="5" fill="#C4E8D6"/>
<rect x="594" y="243.303" width="19.1931" height="3.81854" rx="1.90927" transform="rotate(-46.3632 594 243.303)" fill="#DBE9E2"/>
<rect x="612" y="267.891" width="19.1931" height="3.81854" rx="1.90927" transform="rotate(-46.3632 612 267.891)" fill="#DBE9E2"/>
<rect x="612" y="257.891" width="19.1931" height="3.81854" rx="1.90927" transform="rotate(-46.3632 612 257.891)" fill="#DBE9E2"/>
<rect x="595" y="253.891" width="32.2041" height="3.81854" rx="1.90927" transform="rotate(-46.3632 595 253.891)" fill="#DBE9E2"/>
<rect x="827" y="127" width="37" height="42" rx="5" fill="#C4E8D6"/>
<rect x="828" y="141.303" width="19.1931" height="3.81854" rx="1.90927" transform="rotate(-46.3632 828 141.303)" fill="#DBE9E2"/>
<rect x="846" y="165.891" width="19.1931" height="3.81854" rx="1.90927" transform="rotate(-46.3632 846 165.891)" fill="#DBE9E2"/>
<rect x="846" y="155.891" width="19.1931" height="3.81854" rx="1.90927" transform="rotate(-46.3632 846 155.891)" fill="#DBE9E2"/>
<rect x="829" y="151.891" width="32.2041" height="3.81854" rx="1.90927" transform="rotate(-46.3632 829 151.891)" fill="#DBE9E2"/>
<rect x="883" y="127" width="37" height="42" rx="5" fill="#C4E8D6"/>
<rect x="884" y="141.303" width="19.1931" height="3.81854" rx="1.90927" transform="rotate(-46.3632 884 141.303)" fill="#DBE9E2"/>
<rect x="902" y="165.891" width="19.1931" height="3.81854" rx="1.90927" transform="rotate(-46.3632 902 165.891)" fill="#DBE9E2"/>
<rect x="902" y="155.891" width="19.1931" height="3.81854" rx="1.90927" transform="rotate(-46.3632 902 155.891)" fill="#DBE9E2"/>
<rect x="885" y="151.891" width="32.2041" height="3.81854" rx="1.90927" transform="rotate(-46.3632 885 151.891)" fill="#DBE9E2"/>
<rect x="939" y="127" width="37" height="42" rx="5" fill="#C4E8D6"/>
<rect x="940" y="141.303" width="19.1931" height="3.81854" rx="1.90927" transform="rotate(-46.3632 940 141.303)" fill="#DBE9E2"/>
<rect x="958" y="165.891" width="19.1931" height="3.81854" rx="1.90927" transform="rotate(-46.3632 958 165.891)" fill="#DBE9E2"/>
<rect x="958" y="155.891" width="19.1931" height="3.81854" rx="1.90927" transform="rotate(-46.3632 958 155.891)" fill="#DBE9E2"/>
<rect x="941" y="151.891" width="32.2041" height="3.81854" rx="1.90927" transform="rotate(-46.3632 941 151.891)" fill="#DBE9E2"/>
<rect x="827" y="178" width="37" height="42" rx="5" fill="#C4E8D6"/>
<rect x="828" y="192.303" width="19.1931" height="3.81854" rx="1.90927" transform="rotate(-46.3632 828 192.303)" fill="#DBE9E2"/>
<rect x="846" y="216.891" width="19.1931" height="3.81854" rx="1.90927" transform="rotate(-46.3632 846 216.891)" fill="#DBE9E2"/>
<rect x="846" y="206.891" width="19.1931" height="3.81854" rx="1.90927" transform="rotate(-46.3632 846 206.891)" fill="#DBE9E2"/>
<rect x="829" y="202.891" width="32.2041" height="3.81854" rx="1.90927" transform="rotate(-46.3632 829 202.891)" fill="#DBE9E2"/>
<rect x="883" y="178" width="37" height="42" rx="5" fill="#C4E8D6"/>
<rect x="884" y="192.303" width="19.1931" height="3.81854" rx="1.90927" transform="rotate(-46.3632 884 192.303)" fill="#DBE9E2"/>
<rect x="902" y="216.891" width="19.1931" height="3.81854" rx="1.90927" transform="rotate(-46.3632 902 216.891)" fill="#DBE9E2"/>
<rect x="902" y="206.891" width="19.1931" height="3.81854" rx="1.90927" transform="rotate(-46.3632 902 206.891)" fill="#DBE9E2"/>
<rect x="885" y="202.891" width="32.2041" height="3.81854" rx="1.90927" transform="rotate(-46.3632 885 202.891)" fill="#DBE9E2"/>
<rect x="939" y="178" width="37" height="42" rx="5" fill="#C4E8D6"/>
<rect x="940" y="192.303" width="19.1931" height="3.81854" rx="1.90927" transform="rotate(-46.3632 940 192.303)" fill="#DBE9E2"/>
<rect x="958" y="216.891" width="19.1931" height="3.81854" rx="1.90927" transform="rotate(-46.3632 958 216.891)" fill="#DBE9E2"/>
<rect x="958" y="206.891" width="19.1931" height="3.81854" rx="1.90927" transform="rotate(-46.3632 958 206.891)" fill="#DBE9E2"/>
<rect x="941" y="202.891" width="32.2041" height="3.81854" rx="1.90927" transform="rotate(-46.3632 941 202.891)" fill="#DBE9E2"/>
<rect x="828" y="229" width="37" height="42" rx="5" fill="#C4E8D6"/>
<rect x="829" y="243.303" width="19.1931" height="3.81854" rx="1.90927" transform="rotate(-46.3632 829 243.303)" fill="#DBE9E2"/>
<rect x="847" y="267.891" width="19.1931" height="3.81854" rx="1.90927" transform="rotate(-46.3632 847 267.891)" fill="#DBE9E2"/>
<rect x="847" y="257.891" width="19.1931" height="3.81854" rx="1.90927" transform="rotate(-46.3632 847 257.891)" fill="#DBE9E2"/>
<rect x="830" y="253.891" width="32.2041" height="3.81854" rx="1.90927" transform="rotate(-46.3632 830 253.891)" fill="#DBE9E2"/>
<rect x="884" y="229" width="37" height="42" rx="5" fill="#C4E8D6"/>
<rect x="885" y="243.303" width="19.1931" height="3.81854" rx="1.90927" transform="rotate(-46.3632 885 243.303)" fill="#DBE9E2"/>
<rect x="903" y="267.891" width="19.1931" height="3.81854" rx="1.90927" transform="rotate(-46.3632 903 267.891)" fill="#DBE9E2"/>
<rect x="903" y="257.891" width="19.1931" height="3.81854" rx="1.90927" transform="rotate(-46.3632 903 257.891)" fill="#DBE9E2"/>
<rect x="886" y="253.891" width="32.2041" height="3.81854" rx="1.90927" transform="rotate(-46.3632 886 253.891)" fill="#DBE9E2"/>
<rect x="940" y="229" width="37" height="42" rx="5" fill="#C4E8D6"/>
<rect x="941" y="243.303" width="19.1931" height="3.81854" rx="1.90927" transform="rotate(-46.3632 941 243.303)" fill="#DBE9E2"/>
<rect x="959" y="267.891" width="19.1931" height="3.81854" rx="1.90927" transform="rotate(-46.3632 959 267.891)" fill="#DBE9E2"/>
<rect x="959" y="257.891" width="19.1931" height="3.81854" rx="1.90927" transform="rotate(-46.3632 959 257.891)" fill="#DBE9E2"/>
<rect x="942" y="253.891" width="32.2041" height="3.81854" rx="1.90927" transform="rotate(-46.3632 942 253.891)" fill="#DBE9E2"/>
<rect x="1154" y="129" width="37" height="42" rx="5" fill="#C4E8D6"/>
<rect x="1155" y="143.303" width="19.1931" height="3.81854" rx="1.90927" transform="rotate(-46.3632 1155 143.303)" fill="#DBE9E2"/>
<rect x="1173" y="167.891" width="19.1931" height="3.81854" rx="1.90927" transform="rotate(-46.3632 1173 167.891)" fill="#DBE9E2"/>
<rect x="1173" y="157.891" width="19.1931" height="3.81854" rx="1.90927" transform="rotate(-46.3632 1173 157.891)" fill="#DBE9E2"/>
<rect x="1156" y="153.891" width="32.2041" height="3.81854" rx="1.90927" transform="rotate(-46.3632 1156 153.891)" fill="#DBE9E2"/>
<rect x="1154" y="180" width="37" height="42" rx="5" fill="#C4E8D6"/>
<rect x="1155" y="194.303" width="19.1931" height="3.81854" rx="1.90927" transform="rotate(-46.3632 1155 194.303)" fill="#DBE9E2"/>
<rect x="1173" y="218.891" width="19.1931" height="3.81854" rx="1.90927" transform="rotate(-46.3632 1173 218.891)" fill="#DBE9E2"/>
<rect x="1173" y="208.891" width="19.1931" height="3.81854" rx="1.90927" transform="rotate(-46.3632 1173 208.891)" fill="#DBE9E2"/>
<rect x="1156" y="204.891" width="32.2041" height="3.81854" rx="1.90927" transform="rotate(-46.3632 1156 204.891)" fill="#DBE9E2"/>
<rect x="1155" y="231" width="37" height="42" rx="5" fill="#C4E8D6"/>
<rect x="1156" y="245.303" width="19.1931" height="3.81854" rx="1.90927" transform="rotate(-46.3632 1156 245.303)" fill="#DBE9E2"/>
<rect x="1174" y="269.891" width="19.1931" height="3.81854" rx="1.90927" transform="rotate(-46.3632 1174 269.891)" fill="#DBE9E2"/>
<rect x="1174" y="259.891" width="19.1931" height="3.81854" rx="1.90927" transform="rotate(-46.3632 1174 259.891)" fill="#DBE9E2"/>
<rect x="1157" y="255.891" width="32.2041" height="3.81854" rx="1.90927" transform="rotate(-46.3632 1157 255.891)" fill="#DBE9E2"/>
<rect x="994" y="129" width="37" height="42" rx="5" fill="#C4E8D6"/>
<rect x="995" y="143.303" width="19.1931" height="3.81854" rx="1.90927" transform="rotate(-46.3632 995 143.303)" fill="#DBE9E2"/>
<rect x="1013" y="167.891" width="19.1931" height="3.81854" rx="1.90927" transform="rotate(-46.3632 1013 167.891)" fill="#DBE9E2"/>
<rect x="1013" y="157.891" width="19.1931" height="3.81854" rx="1.90927" transform="rotate(-46.3632 1013 157.891)" fill="#DBE9E2"/>
<rect x="996" y="153.891" width="32.2041" height="3.81854" rx="1.90927" transform="rotate(-46.3632 996 153.891)" fill="#DBE9E2"/>
<rect x="1050" y="129" width="37" height="42" rx="5" fill="#C4E8D6"/>
<rect x="1051" y="143.303" width="19.1931" height="3.81854" rx="1.90927" transform="rotate(-46.3632 1051 143.303)" fill="#DBE9E2"/>
<rect x="1069" y="167.891" width="19.1931" height="3.81854" rx="1.90927" transform="rotate(-46.3632 1069 167.891)" fill="#DBE9E2"/>
<rect x="1069" y="157.891" width="19.1931" height="3.81854" rx="1.90927" transform="rotate(-46.3632 1069 157.891)" fill="#DBE9E2"/>
<rect x="1052" y="153.891" width="32.2041" height="3.81854" rx="1.90927" transform="rotate(-46.3632 1052 153.891)" fill="#DBE9E2"/>
<rect x="1106" y="129" width="37" height="42" rx="5" fill="#C4E8D6"/>
<rect x="1107" y="143.303" width="19.1931" height="3.81854" rx="1.90927" transform="rotate(-46.3632 1107 143.303)" fill="#DBE9E2"/>
<rect x="1125" y="167.891" width="19.1931" height="3.81854" rx="1.90927" transform="rotate(-46.3632 1125 167.891)" fill="#DBE9E2"/>
<rect x="1125" y="157.891" width="19.1931" height="3.81854" rx="1.90927" transform="rotate(-46.3632 1125 157.891)" fill="#DBE9E2"/>
<rect x="1108" y="153.891" width="32.2041" height="3.81854" rx="1.90927" transform="rotate(-46.3632 1108 153.891)" fill="#DBE9E2"/>
<rect x="994" y="180" width="37" height="42" rx="5" fill="#C4E8D6"/>
<rect x="995" y="194.303" width="19.1931" height="3.81854" rx="1.90927" transform="rotate(-46.3632 995 194.303)" fill="#DBE9E2"/>
<rect x="1013" y="218.891" width="19.1931" height="3.81854" rx="1.90927" transform="rotate(-46.3632 1013 218.891)" fill="#DBE9E2"/>
<rect x="1013" y="208.891" width="19.1931" height="3.81854" rx="1.90927" transform="rotate(-46.3632 1013 208.891)" fill="#DBE9E2"/>
<rect x="996" y="204.891" width="32.2041" height="3.81854" rx="1.90927" transform="rotate(-46.3632 996 204.891)" fill="#DBE9E2"/>
<rect x="1050" y="180" width="37" height="42" rx="5" fill="#C4E8D6"/>
<rect x="1051" y="194.303" width="19.1931" height="3.81854" rx="1.90927" transform="rotate(-46.3632 1051 194.303)" fill="#DBE9E2"/>
<rect x="1069" y="218.891" width="19.1931" height="3.81854" rx="1.90927" transform="rotate(-46.3632 1069 218.891)" fill="#DBE9E2"/>
<rect x="1069" y="208.891" width="19.1931" height="3.81854" rx="1.90927" transform="rotate(-46.3632 1069 208.891)" fill="#DBE9E2"/>
<rect x="1052" y="204.891" width="32.2041" height="3.81854" rx="1.90927" transform="rotate(-46.3632 1052 204.891)" fill="#DBE9E2"/>
<path d="M278.532 287C529.031 287 1227.53 287 1294.03 287C1360.53 287 1407.03 560 1189.53 575.5C972.032 591 1417.53 782 1297.53 896C1177.53 1010 433.032 1050.5 278.532 896C217.881 835.35 462.032 593.5 141.048 621C-179.936 648.5 126.367 287 278.532 287Z" fill="#7D7D7D"/>
<rect x="1106" y="180" width="37" height="42" rx="5" fill="#C4E8D6"/>
<rect x="1107" y="194.303" width="19.1931" height="3.81854" rx="1.90927" transform="rotate(-46.3632 1107 194.303)" fill="#DBE9E2"/>
<rect x="1125" y="218.891" width="19.1931" height="3.81854" rx="1.90927" transform="rotate(-46.3632 1125 218.891)" fill="#DBE9E2"/>
<rect x="1125" y="208.891" width="19.1931" height="3.81854" rx="1.90927" transform="rotate(-46.3632 1125 208.891)" fill="#DBE9E2"/>
<rect x="1108" y="204.891" width="32.2041" height="3.81854" rx="1.90927" transform="rotate(-46.3632 1108 204.891)" fill="#DBE9E2"/>
<rect x="995" y="231" width="37" height="42" rx="5" fill="#C4E8D6"/>
<rect x="996" y="245.303" width="19.1931" height="3.81854" rx="1.90927" transform="rotate(-46.3632 996 245.303)" fill="#DBE9E2"/>
<rect x="1014" y="269.891" width="19.1931" height="3.81854" rx="1.90927" transform="rotate(-46.3632 1014 269.891)" fill="#DBE9E2"/>
<rect x="1014" y="259.891" width="19.1931" height="3.81854" rx="1.90927" transform="rotate(-46.3632 1014 259.891)" fill="#DBE9E2"/>
<rect x="997" y="255.891" width="32.2041" height="3.81854" rx="1.90927" transform="rotate(-46.3632 997 255.891)" fill="#DBE9E2"/>
<rect x="1051" y="231" width="37" height="42" rx="5" fill="#C4E8D6"/>
<rect x="1052" y="245.303" width="19.1931" height="3.81854" rx="1.90927" transform="rotate(-46.3632 1052 245.303)" fill="#DBE9E2"/>
<rect x="1070" y="269.891" width="19.1931" height="3.81854" rx="1.90927" transform="rotate(-46.3632 1070 269.891)" fill="#DBE9E2"/>
<rect x="1070" y="259.891" width="19.1931" height="3.81854" rx="1.90927" transform="rotate(-46.3632 1070 259.891)" fill="#DBE9E2"/>
<rect x="1053" y="255.891" width="32.2041" height="3.81854" rx="1.90927" transform="rotate(-46.3632 1053 255.891)" fill="#DBE9E2"/>
<rect x="1107" y="231" width="37" height="42" rx="5" fill="#C4E8D6"/>
<rect x="1108" y="245.303" width="19.1931" height="3.81854" rx="1.90927" transform="rotate(-46.3632 1108 245.303)" fill="#DBE9E2"/>
<rect x="1126" y="269.891" width="19.1931" height="3.81854" rx="1.90927" transform="rotate(-46.3632 1126 269.891)" fill="#DBE9E2"/>
<rect x="1126" y="259.891" width="19.1931" height="3.81854" rx="1.90927" transform="rotate(-46.3632 1126 259.891)" fill="#DBE9E2"/>
<rect x="1109" y="255.891" width="32.2041" height="3.81854" rx="1.90927" transform="rotate(-46.3632 1109 255.891)" fill="#DBE9E2"/>
<rect x="1106" y="129" width="37" height="42" rx="5" fill="#C4E8D6"/>
<rect x="1125" y="167.891" width="19.1931" height="3.81854" rx="1.90927" transform="rotate(-46.3632 1125 167.891)" fill="#DBE9E2"/>
<rect x="1125" y="157.891" width="19.1931" height="3.81854" rx="1.90927" transform="rotate(-46.3632 1125 157.891)" fill="#DBE9E2"/>
<rect x="1108" y="153.891" width="32.2041" height="3.81854" rx="1.90927" transform="rotate(-46.3632 1108 153.891)" fill="#DBE9E2"/>
<rect x="1106" y="180" width="37" height="42" rx="5" fill="#C4E8D6"/>
<rect x="1125" y="218.891" width="19.1931" height="3.81854" rx="1.90927" transform="rotate(-46.3632 1125 218.891)" fill="#DBE9E2"/>
<rect x="1125" y="208.891" width="19.1931" height="3.81854" rx="1.90927" transform="rotate(-46.3632 1125 208.891)" fill="#DBE9E2"/>
<rect x="1108" y="204.891" width="32.2041" height="3.81854" rx="1.90927" transform="rotate(-46.3632 1108 204.891)" fill="#DBE9E2"/>
<rect x="1107" y="231" width="37" height="42" rx="5" fill="#C4E8D6"/>
<rect x="1108" y="245.303" width="19.1931" height="3.81854" rx="1.90927" transform="rotate(-46.3632 1108 245.303)" fill="#DBE9E2"/>
<rect x="1126" y="269.891" width="19.1931" height="3.81854" rx="1.90927" transform="rotate(-46.3632 1126 269.891)" fill="#DBE9E2"/>
<rect x="1126" y="259.891" width="19.1931" height="3.81854" rx="1.90927" transform="rotate(-46.3632 1126 259.891)" fill="#DBE9E2"/>
<rect x="1109" y="255.891" width="32.2041" height="3.81854" rx="1.90927" transform="rotate(-46.3632 1109 255.891)" fill="#DBE9E2"/>
<rect x="1106" y="129" width="37" height="42" rx="5" fill="#C4E8D6"/>
<rect x="1107" y="143.303" width="19.1931" height="3.81854" rx="1.90927" transform="rotate(-46.3632 1107 143.303)" fill="#DBE9E2"/>
<rect x="1125" y="167.891" width="19.1931" height="3.81854" rx="1.90927" transform="rotate(-46.3632 1125 167.891)" fill="#DBE9E2"/>
<rect x="1125" y="157.891" width="19.1931" height="3.81854" rx="1.90927" transform="rotate(-46.3632 1125 157.891)" fill="#DBE9E2"/>
<rect x="1108" y="153.891" width="32.2041" height="3.81854" rx="1.90927" transform="rotate(-46.3632 1108 153.891)" fill="#DBE9E2"/>
<rect x="1106" y="180" width="37" height="42" rx="5" fill="#C4E8D6"/>
<rect x="1107" y="194.303" width="19.1931" height="3.81854" rx="1.90927" transform="rotate(-46.3632 1107 194.303)" fill="#DBE9E2"/>
<rect x="1125" y="218.891" width="19.1931" height="3.81854" rx="1.90927" transform="rotate(-46.3632 1125 218.891)" fill="#DBE9E2"/>
<rect x="1125" y="208.891" width="19.1931" height="3.81854" rx="1.90927" transform="rotate(-46.3632 1125 208.891)" fill="#DBE9E2"/>
<rect x="1108" y="204.891" width="32.2041" height="3.81854" rx="1.90927" transform="rotate(-46.3632 1108 204.891)" fill="#DBE9E2"/>
<rect x="1107" y="231" width="37" height="42" rx="5" fill="#C4E8D6"/>
<rect x="1108" y="245.303" width="19.1931" height="3.81854" rx="1.90927" transform="rotate(-46.3632 1108 245.303)" fill="#DBE9E2"/>
<rect x="1126" y="269.891" width="19.1931" height="3.81854" rx="1.90927" transform="rotate(-46.3632 1126 269.891)" fill="#DBE9E2"/>
<rect x="1126" y="259.891" width="19.1931" height="3.81854" rx="1.90927" transform="rotate(-46.3632 1126 259.891)" fill="#DBE9E2"/>
<rect x="1109" y="255.891" width="32.2041" height="3.81854" rx="1.90927" transform="rotate(-46.3632 1109 255.891)" fill="#DBE9E2"/>
<rect x="1106" y="129" width="37" height="42" rx="5" fill="#C4E8D6"/>
<rect x="1125" y="167.891" width="19.1931" height="3.81854" rx="1.90927" transform="rotate(-46.3632 1125 167.891)" fill="#DBE9E2"/>
<rect x="1125" y="157.891" width="19.1931" height="3.81854" rx="1.90927" transform="rotate(-46.3632 1125 157.891)" fill="#DBE9E2"/>
<rect x="1108" y="153.891" width="32.2041" height="3.81854" rx="1.90927" transform="rotate(-46.3632 1108 153.891)" fill="#DBE9E2"/>
<rect x="1106" y="180" width="37" height="42" rx="5" fill="#C4E8D6"/>
<rect x="1125" y="218.891" width="19.1931" height="3.81854" rx="1.90927" transform="rotate(-46.3632 1125 218.891)" fill="#DBE9E2"/>
<rect x="1125" y="208.891" width="19.1931" height="3.81854" rx="1.90927" transform="rotate(-46.3632 1125 208.891)" fill="#DBE9E2"/>
<rect x="1108" y="204.891" width="32.2041" height="3.81854" rx="1.90927" transform="rotate(-46.3632 1108 204.891)" fill="#DBE9E2"/>
<rect x="1107" y="231" width="37" height="42" rx="5" fill="#C4E8D6"/>
<rect x="1108" y="245.303" width="19.1931" height="3.81854" rx="1.90927" transform="rotate(-46.3632 1108 245.303)" fill="#DBE9E2"/>
<rect x="1126" y="269.891" width="19.1931" height="3.81854" rx="1.90927" transform="rotate(-46.3632 1126 269.891)" fill="#DBE9E2"/>
<rect x="1126" y="259.891" width="19.1931" height="3.81854" rx="1.90927" transform="rotate(-46.3632 1126 259.891)" fill="#DBE9E2"/>
<rect x="1109" y="255.891" width="32.2041" height="3.81854" rx="1.90927" transform="rotate(-46.3632 1109 255.891)" fill="#DBE9E2"/>
<rect x="714" y="178" width="7" height="105" rx="3.5" fill="#B97639"/>
<rect x="797" y="178" width="7" height="83" rx="3.5" transform="rotate(90 797 178)" fill="#B97639"/>
<rect x="791" y="178" width="7" height="102" rx="3.5" fill="#B97639"/>
<rect x="705" y="277" width="103" height="25" rx="3" fill="#C4C4C4"/>
<rect x="677" y="746" width="169" height="41" rx="7" fill="#C4C4C4"/>
<path d="M728.534 766C724.466 766 721.254 762.544 721.553 758.486L741.795 483.486C742.064 479.829 745.11 477 748.776 477L773.024 477C776.679 477 779.719 479.812 780.003 483.457L801.413 758.457C801.729 762.525 798.514 766 794.434 766L728.534 766Z" fill="#C4C4C4"/>
<rect x="714" y="285" width="86" height="17" rx="2" fill="#A7A6A6"/>
<rect x="786" y="746" width="60" height="16" rx="5" fill="#A7A6A6"/>
<rect x="786.262" y="762.164" width="281.811" height="14.4021" rx="5" transform="rotate(-94.1812 786.262 762.164)" fill="#A7A6A6"/>
<circle cx="759" cy="459" r="36" fill="#C4C4C4"/>
<path d="M795.5 458.5C795.5 478.382 779.382 494.5 759.5 494.5C739.618 494.5 779 478.382 779 458.5C779 438.618 739.618 422.5 759.5 422.5C779.382 422.5 795.5 438.618 795.5 458.5Z" fill="#A7A6A6"/>
<ellipse cx="758.976" cy="412.762" rx="23.665" ry="31.2379" fill="#C4C4C4"/>
<circle cx="758.786" cy="379.252" r="13.2524" fill="#C4C4C4"/>
<circle cx="758.976" cy="378.306" r="7.76214" fill="#A7A6A6"/>
<rect x="754.243" y="394.615" width="19.6893" height="55.6602" rx="9.84466" transform="rotate(-32.0224 754.243 394.615)" fill="#C4C4C4"/>
<rect width="19.6893" height="55.6602" rx="9.84466" transform="matrix(-0.847841 -0.53025 -0.53025 0.847841 762.207 394.615)" fill="#C4C4C4"/>
<ellipse cx="758.976" cy="413.709" rx="16.0922" ry="21.2039" fill="#A7A6A6"/>
<ellipse cx="758.976" cy="414.655" rx="16.0922" ry="24.4223" fill="#A7A6A6"/>
</svg>
