<?xml version="1.0" standalone="no"?>
<!DOCTYPE svg PUBLIC "-//W3C//DTD SVG 20010904//EN"
 "http://www.w3.org/TR/2001/REC-SVG-20010904/DTD/svg10.dtd">
<svg version="1.0" xmlns="http://www.w3.org/2000/svg"
 width="1024.000000pt" height="336.000000pt" viewBox="0 0 1024.000000 336.000000"
 preserveAspectRatio="xMidYMid meet">

<g transform="translate(0.000000,336.000000) scale(0.100000,-0.100000)"
fill="#000000" stroke="none">
<path d="M90 1675 l0 -1595 2860 0 2860 0 0 1595 0 1595 -2860 0 -2860 0 0
-1595z m1320 1325 l0 -260 -655 0 -655 0 0 260 0 260 655 0 655 0 0 -260z
m2100 0 l0 -260 -1045 0 -1045 0 0 260 0 260 1045 0 1045 0 0 -260z m2290 0
l0 -260 -1140 0 -1140 0 0 260 0 260 1140 0 1140 0 0 -260z m-4390 -530 l0
-260 -655 0 -655 0 0 260 0 260 655 0 655 0 0 -260z m2100 0 l0 -260 -1045 0
-1045 0 0 260 0 260 1045 0 1045 0 0 -260z m2290 0 l0 -260 -1140 0 -1140 0 0
260 0 260 1140 0 1140 0 0 -260z m-4390 -530 l0 -260 -655 0 -655 0 0 260 0
260 655 0 655 0 0 -260z m2100 0 l0 -260 -1045 0 -1045 0 0 260 0 260 1045 0
1045 0 0 -260z m2290 0 l0 -260 -1140 0 -1140 0 0 260 0 260 1140 0 1140 0 0
-260z m-4390 -530 l0 -260 -655 0 -655 0 0 260 0 260 655 0 655 0 0 -260z
m2100 0 l0 -260 -1045 0 -1045 0 0 260 0 260 1045 0 1045 0 0 -260z m2290 0
l0 -260 -1140 0 -1140 0 0 260 0 260 1140 0 1140 0 0 -260z m-4390 -530 l0
-260 -655 0 -655 0 0 260 0 260 655 0 655 0 0 -260z m2100 0 l0 -260 -1045 0
-1045 0 0 260 0 260 1045 0 1045 0 0 -260z m2290 0 l0 -260 -1140 0 -1140 0 0
260 0 260 1140 0 1140 0 0 -260z m-4390 -530 l0 -260 -655 0 -655 0 0 260 0
260 655 0 655 0 0 -260z m2100 0 l0 -260 -1045 0 -1045 0 0 260 0 260 1045 0
1045 0 0 -260z m2290 0 l0 -260 -1140 0 -1140 0 0 260 0 260 1140 0 1140 0 0
-260z"/>
<path d="M260 3030 l0 -60 33 0 c42 0 57 15 57 60 0 45 -15 60 -57 60 l-33 0
0 -60z m65 0 c0 -29 -4 -36 -22 -38 -21 -3 -23 1 -23 38 0 37 2 41 23 38 18
-2 22 -9 22 -38z"/>
<path d="M470 3080 c0 -5 5 -10 10 -10 6 0 10 5 10 10 0 6 -4 10 -10 10 -5 0
-10 -4 -10 -10z"/>
<path d="M940 3076 c0 -8 -11 -17 -24 -20 -27 -7 -37 -32 -25 -64 7 -17 16
-22 44 -22 l35 0 0 60 c0 47 -3 60 -15 60 -8 0 -15 -6 -15 -14z m0 -61 c0 -16
-6 -25 -15 -25 -9 0 -15 9 -15 25 0 16 6 25 15 25 9 0 15 -9 15 -25z"/>
<path d="M1090 3080 c0 -5 5 -10 10 -10 6 0 10 5 10 10 0 6 -4 10 -10 10 -5 0
-10 -4 -10 -10z"/>
<path d="M558 3068 c-8 -23 4 -98 16 -98 10 0 13 52 7 103 -2 12 -18 8 -23 -5z"/>
<path d="M370 3013 c0 -50 17 -59 22 -11 4 46 28 49 28 4 0 -25 4 -36 15 -36
10 0 15 10 15 33 0 44 -10 56 -48 55 -31 -1 -32 -2 -32 -45z"/>
<path d="M470 3015 c0 -25 5 -45 10 -45 6 0 10 20 10 45 0 25 -4 45 -10 45 -5
0 -10 -20 -10 -45z"/>
<path d="M600 3057 c0 -2 7 -25 16 -51 14 -40 14 -50 3 -57 -7 -4 -10 -11 -6
-15 12 -13 36 17 52 67 10 28 14 53 10 57 -8 9 -24 -18 -26 -43 0 -15 -4 -12
-15 13 -8 17 -19 32 -24 32 -6 0 -10 -1 -10 -3z"/>
<path d="M698 3034 c-15 -32 0 -59 31 -58 31 1 26 -14 -6 -18 -25 -4 -26 -5
-9 -13 32 -14 51 7 54 62 3 50 3 50 -28 51 -24 0 -34 -5 -42 -24z m49 -10 c8
-22 -15 -44 -26 -25 -10 16 -4 41 10 41 5 0 12 -7 16 -16z"/>
<path d="M800 3046 c-28 -35 11 -93 48 -70 35 22 22 84 -18 84 -10 0 -23 -7
-30 -14z m47 -22 c8 -21 -13 -42 -28 -27 -13 13 -5 43 11 43 6 0 13 -7 17 -16z"/>
<path d="M990 3013 c0 -50 17 -59 22 -11 4 46 28 49 28 4 0 -25 4 -36 15 -36
10 0 15 10 15 33 0 44 -10 56 -48 55 -31 -1 -32 -2 -32 -45z"/>
<path d="M1090 3015 c0 -25 5 -45 10 -45 6 0 10 20 10 45 0 25 -4 45 -10 45
-5 0 -10 -20 -10 -45z"/>
<path d="M1137 3054 c-15 -15 -6 -24 21 -19 l27 5 -25 -12 c-14 -7 -28 -17
-32 -22 -11 -17 11 -35 43 -34 29 1 30 3 27 42 -3 35 -6 41 -28 44 -14 2 -29
0 -33 -4z m38 -54 c-3 -5 -10 -10 -16 -10 -5 0 -9 5 -9 10 0 6 7 10 16 10 8 0
12 -4 9 -10z"/>
<path d="M1908 3030 c9 -33 21 -60 28 -60 6 0 16 19 21 43 l10 42 8 -42 c11
-60 30 -53 48 17 11 46 12 60 2 60 -7 0 -16 -19 -22 -42 l-9 -43 -8 43 c-5 24
-13 42 -21 42 -8 0 -16 -18 -21 -42 l-8 -43 -9 43 c-6 23 -15 42 -22 42 -10 0
-9 -14 3 -60z"/>
<path d="M2760 3030 c0 -33 4 -60 10 -60 6 0 10 27 10 60 0 33 -4 60 -10 60
-6 0 -10 -27 -10 -60z"/>
<path d="M2900 3080 c0 -5 7 -10 15 -10 8 0 15 5 15 10 0 6 -7 10 -15 10 -8 0
-15 -4 -15 -10z"/>
<path d="M2058 3009 c13 -41 14 -52 3 -58 -7 -5 -9 -11 -4 -14 16 -10 29 7 46
57 19 57 21 66 8 66 -5 0 -13 -15 -17 -32 l-7 -33 -10 33 c-6 17 -16 32 -23
32 -9 0 -8 -12 4 -51z"/>
<path d="M2140 2999 c0 -33 4 -59 10 -59 6 0 10 9 10 20 0 13 5 18 15 14 21
-8 45 14 45 41 0 29 -18 43 -52 43 -27 0 -28 -2 -28 -59z m57 25 c8 -21 -13
-42 -28 -27 -13 13 -5 43 11 43 6 0 13 -7 17 -16z"/>
<path d="M2246 3044 c-9 -8 -16 -22 -16 -29 0 -20 28 -45 51 -45 27 0 45 41
30 69 -14 25 -43 27 -65 5z m47 -16 c6 -19 -3 -38 -19 -38 -8 0 -14 10 -14 25
0 26 25 35 33 13z"/>
<path d="M2330 3050 c0 -5 10 -10 22 -10 l21 0 -21 -23 c-31 -33 -28 -47 13
-47 19 0 35 5 35 10 0 6 -9 10 -21 10 l-20 0 20 26 c29 37 26 44 -14 44 -19 0
-35 -4 -35 -10z"/>
<path d="M2410 3052 c0 -5 7 -26 15 -47 13 -29 13 -40 4 -51 -16 -19 -2 -32
15 -13 15 16 48 110 42 117 -9 9 -26 -10 -26 -29 0 -26 -18 -24 -22 3 -3 21
-28 39 -28 20z"/>
<path d="M2512 3048 c-28 -28 -4 -84 34 -76 27 5 29 28 2 26 -17 -2 -23 2 -23
17 0 15 6 19 23 17 15 -1 22 2 20 10 -6 18 -41 21 -56 6z"/>
<path d="M2590 3050 c0 -5 7 -10 15 -10 8 0 15 -4 15 -9 0 -5 -7 -14 -15 -21
-27 -22 -18 -40 20 -40 38 0 48 17 14 22 l-21 3 21 27 c28 35 27 38 -14 38
-19 0 -35 -4 -35 -10z"/>
<path d="M2677 3054 c-15 -15 -6 -24 18 -18 33 8 32 -4 -1 -16 -38 -15 -28
-44 17 -47 l35 -2 -5 42 c-5 36 -10 42 -31 45 -14 2 -29 0 -33 -4z m43 -54 c0
-5 -7 -10 -15 -10 -8 0 -15 5 -15 10 0 6 7 10 15 10 8 0 15 -4 15 -10z"/>
<path d="M2810 3014 c0 -24 5 -44 10 -44 6 0 10 16 10 35 0 24 5 35 15 35 10
0 15 -11 15 -35 0 -19 5 -35 11 -35 6 0 9 17 7 43 -3 40 -5 42 -35 44 -33 1
-33 1 -33 -43z"/>
<path d="M2900 3015 c0 -33 4 -45 15 -45 11 0 15 12 15 45 0 33 -4 45 -15 45
-11 0 -15 -12 -15 -45z"/>
<path d="M2957 3053 c-14 -13 -6 -24 13 -18 29 9 24 -4 -6 -15 -40 -15 -28
-45 19 -46 35 -1 37 0 37 30 0 18 -5 37 -12 44 -13 13 -41 16 -51 5z m33 -53
c0 -5 -4 -10 -10 -10 -5 0 -10 5 -10 10 0 6 5 10 10 10 6 0 10 -4 10 -10z"/>
<path d="M4326 3068 c-9 -12 -16 -29 -16 -38 0 -47 62 -78 90 -45 17 20 5 32
-15 15 -23 -19 -45 -5 -45 30 0 35 22 49 45 30 20 -17 32 -5 15 15 -18 22 -56
18 -74 -7z"/>
<path d="M4740 3030 c0 -33 4 -60 10 -60 6 0 10 27 10 60 0 33 -4 60 -10 60
-6 0 -10 -27 -10 -60z"/>
<path d="M4880 3080 c0 -5 7 -10 15 -10 8 0 15 5 15 10 0 6 -7 10 -15 10 -8 0
-15 -4 -15 -10z"/>
<path d="M4598 3069 c-7 -22 7 -92 19 -96 8 -3 10 6 6 30 -3 21 -1 37 6 41 8
5 7 12 -3 22 -18 17 -23 18 -28 3z"/>
<path d="M4430 3050 c0 -5 7 -10 16 -10 13 0 12 -5 -5 -29 -28 -39 -27 -41 14
-41 19 0 35 5 35 10 0 6 -7 10 -15 10 -8 0 -15 4 -15 9 0 5 7 14 15 21 25 21
18 40 -15 40 -16 0 -30 -4 -30 -10z"/>
<path d="M4518 3009 c13 -41 14 -52 3 -58 -7 -5 -9 -11 -4 -14 16 -10 29 7 46
57 19 57 21 66 8 66 -5 0 -13 -15 -17 -32 l-7 -33 -10 33 c-6 17 -16 32 -23
32 -9 0 -8 -12 4 -51z"/>
<path d="M4662 3048 c-6 -6 -12 -25 -12 -40 0 -21 6 -29 24 -34 26 -6 46 1 46
17 0 5 -11 7 -25 3 -15 -4 -25 -2 -25 5 0 6 13 11 30 11 26 0 28 2 21 23 -9
25 -40 34 -59 15z m38 -18 c0 -5 -7 -10 -15 -10 -8 0 -15 5 -15 10 0 6 7 10
15 10 8 0 15 -4 15 -10z"/>
<path d="M4790 3014 c0 -24 5 -44 10 -44 6 0 10 16 10 35 0 24 5 35 15 35 10
0 15 -11 15 -35 0 -19 5 -35 11 -35 6 0 9 17 7 43 -3 40 -5 42 -35 44 -33 1
-33 1 -33 -43z"/>
<path d="M4880 3015 c0 -33 4 -45 15 -45 11 0 15 12 15 45 0 33 -4 45 -15 45
-11 0 -15 -12 -15 -45z"/>
<path d="M4937 3053 c-14 -13 -6 -24 13 -18 29 9 24 -4 -6 -15 -40 -15 -28
-45 19 -46 35 -1 37 0 37 30 0 18 -5 37 -12 44 -13 13 -41 16 -51 5z m33 -53
c0 -5 -4 -10 -10 -10 -5 0 -10 5 -10 10 0 6 5 10 10 10 6 0 10 -4 10 -10z"/>
<path d="M311 2498 c1 -35 4 -51 6 -36 3 22 10 27 36 30 28 3 32 7 32 33 0 27
-3 30 -37 33 l-38 3 1 -63z m53 46 c23 -9 20 -31 -5 -39 -25 -8 -44 7 -36 29
7 17 16 19 41 10z"/>
<path d="M770 2540 c0 -13 -5 -18 -15 -14 -21 8 -45 -14 -45 -41 0 -28 19 -45
48 -42 20 1 22 7 22 59 0 32 -2 58 -5 58 -3 0 -5 -9 -5 -20z m-6 -68 c-13 -20
-25 -20 -38 1 -7 10 -5 21 4 32 12 15 15 15 29 0 12 -12 13 -19 5 -33z"/>
<path d="M1008 2528 c-4 -20 -3 -50 1 -65 l8 -28 4 35 c2 19 2 49 -1 65 l-6
30 -6 -37z"/>
<path d="M1132 2500 c0 -36 2 -56 5 -45 8 33 19 37 33 10 7 -14 17 -25 22 -25
5 0 1 13 -8 29 -15 25 -15 32 -5 45 8 9 9 16 3 16 -5 0 -16 -7 -23 -17 -13
-15 -15 -13 -20 18 -5 25 -6 16 -7 -31z"/>
<path d="M423 2523 c-7 -2 -13 -20 -13 -38 0 -25 5 -35 20 -40 26 -8 50 11 50
39 0 36 -25 53 -57 39z m41 -26 c8 -12 7 -21 -6 -33 -20 -20 -38 -11 -38 20 0
39 23 46 44 13z"/>
<path d="M501 2481 c1 -42 2 -43 8 -15 16 65 41 74 41 14 0 -22 5 -40 11 -40
6 0 9 17 7 43 -3 40 -5 42 -35 43 -33 1 -33 1 -32 -45z"/>
<path d="M593 2485 c0 -27 2 -38 4 -22 2 15 2 37 0 50 -2 12 -4 0 -4 -28z"/>
<path d="M628 2504 c-9 -18 -9 -30 -1 -42 13 -21 55 -22 61 -2 4 13 3 13 -11
2 -9 -8 -21 -11 -27 -7 -20 12 -10 25 20 25 33 0 35 3 20 31 -15 27 -48 24
-62 -7z m50 -2 c2 -7 -6 -12 -17 -12 -21 0 -27 11 -14 24 9 9 26 2 31 -12z"/>
<path d="M818 2523 c27 -5 27 -8 2 -40 -28 -36 -25 -43 18 -42 30 2 32 3 10 6
-33 5 -34 7 -8 40 28 35 25 43 -12 42 -24 -1 -27 -3 -10 -6z"/>
<path d="M880 2485 c0 -25 5 -45 10 -45 6 0 10 20 10 45 0 25 -4 45 -10 45 -5
0 -10 -20 -10 -45z"/>
<path d="M927 2524 c-14 -14 -7 -26 8 -14 12 10 19 10 27 2 8 -8 6 -13 -8 -18
-52 -19 -53 -54 0 -52 31 1 32 2 26 42 -4 31 -10 42 -25 44 -12 2 -24 0 -28
-4z m41 -56 c-7 -19 -38 -22 -38 -4 0 10 9 16 21 16 12 0 19 -5 17 -12z"/>
<path d="M1052 2518 c-16 -16 -15 -53 3 -68 18 -15 47 -10 53 10 5 13 3 13
-12 1 -15 -12 -19 -12 -34 2 -15 16 -14 17 17 17 28 0 32 3 29 23 -3 25 -36
35 -56 15z m46 -16 c2 -7 -7 -12 -23 -12 -24 0 -26 2 -15 15 14 17 31 16 38
-3z"/>
<path d="M2014 2552 c-19 -12 -16 -102 3 -109 28 -11 48 11 48 53 1 55 -19 77
-51 56z m33 -17 c7 -20 -2 -29 -21 -22 -9 4 -13 13 -10 22 8 19 23 19 31 0z
m9 -46 c10 -17 -23 -46 -37 -32 -7 7 -9 19 -6 27 7 18 33 21 43 5z"/>
<path d="M2140 2541 c-14 -28 -13 -64 4 -87 22 -28 50 -7 54 40 5 58 -35 90
-58 47z m50 -40 c0 -14 -5 -33 -10 -41 -9 -13 -12 -12 -25 4 -18 23 -19 40 -4
67 14 27 39 8 39 -30z"/>
<path d="M2232 2548 c-7 -7 -12 -29 -12 -49 0 -73 62 -78 68 -5 5 54 -26 84
-56 54z m48 -48 c0 -9 -7 -25 -15 -36 -13 -16 -16 -17 -25 -4 -25 38 1 109 27
73 7 -9 13 -24 13 -33z"/>
<path d="M2636 2544 c-12 -30 -7 -46 13 -39 10 3 24 -1 31 -10 11 -13 11 -19
-3 -32 -14 -14 -18 -14 -33 -2 -15 12 -17 12 -12 -1 6 -20 48 -19 61 1 13 21
2 50 -23 56 -29 8 -24 31 8 36 26 4 26 4 -4 6 -21 0 -34 -5 -38 -15z"/>
<path d="M2772 2548 c-19 -19 -14 -33 6 -15 10 10 22 17 25 17 13 0 7 -40 -5
-40 -7 0 -5 -5 5 -11 22 -13 22 -38 1 -46 -11 -4 -22 1 -31 13 -14 19 -15 19
-11 -1 2 -15 11 -20 33 -20 29 0 30 2 32 50 2 60 -24 84 -55 53z"/>
<path d="M2860 2541 c-14 -28 -13 -64 4 -87 22 -28 50 -7 54 40 5 58 -35 90
-58 47z m50 -40 c0 -14 -5 -33 -10 -41 -9 -13 -12 -12 -25 4 -18 23 -19 40 -4
67 14 27 39 8 39 -30z"/>
<path d="M2560 2535 c-9 -10 -9 -15 -1 -15 6 0 11 -17 11 -40 0 -22 5 -40 10
-40 6 0 10 25 10 55 0 56 -8 67 -30 40z"/>
<path d="M2408 2483 c6 -2 18 -2 25 0 6 3 1 5 -13 5 -14 0 -19 -2 -12 -5z"/>
<path d="M2090 2450 c0 -5 5 -10 10 -10 6 0 10 5 10 10 0 6 -4 10 -10 10 -5 0
-10 -4 -10 -10z"/>
<path d="M2720 2450 c0 -5 5 -10 10 -10 6 0 10 5 10 10 0 6 -4 10 -10 10 -5 0
-10 -4 -10 -10z"/>
<path d="M4218 2553 c18 -3 32 -7 30 -11 -22 -40 -38 -86 -35 -95 3 -7 8 -3
12 8 5 17 19 47 43 98 2 4 -16 6 -40 5 -37 -1 -39 -2 -10 -5z"/>
<path d="M4420 2530 c0 -25 4 -29 22 -27 15 1 23 -4 26 -17 5 -25 -14 -44 -30
-28 -17 17 -33 15 -18 -3 30 -36 83 3 60 45 -6 11 -20 20 -31 20 -28 0 -19 23
12 31 21 6 21 7 -8 8 -30 1 -33 -2 -33 -29z"/>
<path d="M4756 2539 c-17 -16 -17 -19 -3 -19 11 0 17 -12 20 -42 3 -34 4 -30
5 20 1 34 1 62 0 61 -2 0 -12 -9 -22 -20z"/>
<path d="M4843 2554 c-18 -8 -27 -68 -14 -93 15 -27 47 -27 61 0 14 24 -2 49
-31 49 -11 0 -19 6 -19 14 0 22 19 29 37 14 14 -11 15 -11 11 2 -5 16 -25 22
-45 14z m34 -70 c8 -21 -13 -42 -28 -27 -13 13 -5 43 11 43 6 0 13 -7 17 -16z"/>
<path d="M4967 2554 c-4 -4 -7 -14 -7 -23 0 -12 3 -11 13 4 8 10 19 15 25 11
18 -11 14 -36 -5 -36 -17 -1 -17 -1 0 -11 9 -5 17 -16 17 -24 0 -24 -22 -29
-37 -9 -14 19 -15 19 -11 -1 2 -11 12 -21 24 -23 26 -4 49 22 39 45 -4 10 -8
29 -9 43 -1 25 -33 40 -49 24z"/>
<path d="M5061 2551 c-16 -10 -19 -87 -3 -103 32 -32 74 28 56 79 -10 30 -30
39 -53 24z m34 -52 c0 -32 -4 -44 -15 -44 -16 0 -26 54 -16 82 12 30 31 6 31
-38z"/>
<path d="M4348 2518 c-34 -45 -34 -48 -3 -48 17 0 25 -6 25 -17 0 -15 2 -14
14 3 8 10 11 21 6 24 -5 3 -10 21 -12 39 l-3 35 -27 -36z m22 -18 c0 -11 -7
-20 -15 -20 -18 0 -19 12 -3 28 16 16 18 15 18 -8z"/>
<path d="M4598 2483 c6 -2 18 -2 25 0 6 3 1 5 -13 5 -14 0 -19 -2 -12 -5z"/>
<path d="M500 2023 c1 -27 28 -107 37 -110 6 -2 14 14 18 36 8 51 20 52 32 4
11 -49 29 -52 37 -6 4 21 10 49 13 62 4 16 2 22 -5 17 -5 -3 -14 -25 -18 -49
l-7 -42 -14 48 c-8 26 -18 47 -22 47 -5 0 -14 -21 -21 -47 l-13 -48 -10 48
c-5 26 -13 47 -18 47 -5 0 -9 -3 -9 -7z"/>
<path d="M932 1970 c0 -36 2 -56 5 -45 8 33 19 37 33 10 7 -14 17 -25 22 -25
5 0 1 13 -8 29 -15 25 -15 32 -5 45 8 9 9 16 3 16 -5 0 -16 -7 -23 -17 -13
-15 -15 -13 -20 18 -5 25 -6 16 -7 -31z"/>
<path d="M658 2010 c-2 -6 -2 -31 0 -55 3 -34 8 -45 21 -44 10 0 11 2 4 6 -15
5 -18 70 -4 75 5 2 3 8 -4 15 -8 8 -15 8 -17 3z"/>
<path d="M713 1993 c-7 -2 -13 -20 -13 -38 0 -25 5 -35 20 -40 26 -8 50 11 50
39 0 36 -25 53 -57 39z m41 -26 c8 -12 7 -21 -6 -33 -20 -20 -38 -11 -38 20 0
39 23 46 44 13z"/>
<path d="M791 1950 c2 -34 3 -37 6 -15 3 17 12 38 20 47 14 15 13 17 -6 15
-18 -1 -21 -7 -20 -47z"/>
<path d="M852 1988 c-20 -20 -15 -66 8 -73 20 -6 56 12 45 23 -2 3 -11 -1 -19
-7 -8 -7 -20 -10 -26 -6 -20 12 -10 25 20 25 18 0 30 5 30 13 0 16 -20 37 -35
37 -6 0 -16 -5 -23 -12z m29 -26 c-28 -4 -40 6 -21 18 9 6 20 4 29 -3 12 -10
11 -13 -8 -15z"/>
<path d="M2014 2022 c-19 -12 -16 -102 3 -109 28 -11 48 11 48 53 1 55 -19 77
-51 56z m33 -17 c7 -20 -2 -29 -21 -22 -9 4 -13 13 -10 22 8 19 23 19 31 0z
m9 -46 c10 -17 -23 -46 -37 -32 -7 7 -9 19 -6 27 7 18 33 21 43 5z"/>
<path d="M2140 2011 c-14 -28 -13 -64 4 -87 22 -28 50 -7 54 40 5 58 -35 90
-58 47z m50 -40 c0 -14 -5 -33 -10 -41 -9 -13 -12 -12 -25 4 -18 23 -19 40 -4
67 14 27 39 8 39 -30z"/>
<path d="M2232 2018 c-7 -7 -12 -29 -12 -49 0 -73 62 -78 68 -5 5 54 -26 84
-56 54z m48 -48 c0 -9 -7 -25 -15 -36 -13 -16 -16 -17 -25 -4 -25 38 1 109 27
73 7 -9 13 -24 13 -33z"/>
<path d="M2636 2014 c-12 -30 -7 -46 13 -39 10 3 24 -1 31 -10 11 -13 11 -19
-3 -32 -14 -14 -18 -14 -33 -2 -15 12 -17 12 -12 -1 6 -20 48 -19 61 1 13 21
2 50 -23 56 -29 8 -24 31 8 36 26 4 26 4 -4 6 -21 0 -34 -5 -38 -15z"/>
<path d="M2772 2018 c-19 -19 -14 -33 6 -15 10 10 22 17 25 17 13 0 7 -40 -5
-40 -7 0 -5 -5 5 -11 22 -13 22 -38 1 -46 -11 -4 -22 1 -31 13 -14 19 -15 19
-11 -1 2 -15 11 -20 33 -20 29 0 30 2 32 50 2 60 -24 84 -55 53z"/>
<path d="M2860 2011 c-14 -28 -13 -64 4 -87 22 -28 50 -7 54 40 5 58 -35 90
-58 47z m50 -40 c0 -14 -5 -33 -10 -41 -9 -13 -12 -12 -25 4 -18 23 -19 40 -4
67 14 27 39 8 39 -30z"/>
<path d="M2560 2005 c-9 -10 -9 -15 -1 -15 6 0 11 -17 11 -40 0 -22 5 -40 10
-40 6 0 10 25 10 55 0 56 -8 67 -30 40z"/>
<path d="M2408 1953 c6 -2 18 -2 25 0 6 3 1 5 -13 5 -14 0 -19 -2 -12 -5z"/>
<path d="M2090 1920 c0 -5 5 -10 10 -10 6 0 10 5 10 10 0 6 -4 10 -10 10 -5 0
-10 -4 -10 -10z"/>
<path d="M2720 1920 c0 -5 5 -10 10 -10 6 0 10 5 10 10 0 6 -4 10 -10 10 -5 0
-10 -4 -10 -10z"/>
<path d="M4218 2023 c18 -3 32 -7 30 -11 -22 -40 -38 -86 -35 -95 3 -7 8 -3
12 8 5 17 19 47 43 98 2 4 -16 6 -40 5 -37 -1 -39 -2 -10 -5z"/>
<path d="M4420 2000 c0 -25 4 -29 22 -27 15 1 23 -4 26 -17 5 -25 -14 -44 -30
-28 -17 17 -33 15 -18 -3 30 -36 83 3 60 45 -6 11 -20 20 -31 20 -28 0 -19 23
12 31 21 6 21 7 -8 8 -30 1 -33 -2 -33 -29z"/>
<path d="M4756 2009 c-17 -16 -17 -19 -3 -19 11 0 17 -12 20 -42 3 -34 4 -30
5 20 1 34 1 62 0 61 -2 0 -12 -9 -22 -20z"/>
<path d="M4843 2024 c-18 -8 -27 -68 -14 -93 15 -27 47 -27 61 0 14 24 -2 49
-31 49 -11 0 -19 6 -19 14 0 22 19 29 37 14 14 -11 15 -11 11 2 -5 16 -25 22
-45 14z m34 -70 c8 -21 -13 -42 -28 -27 -13 13 -5 43 11 43 6 0 13 -7 17 -16z"/>
<path d="M4967 2024 c-4 -4 -7 -14 -7 -23 0 -12 3 -11 13 4 8 10 19 15 25 11
18 -11 14 -36 -5 -36 -17 -1 -17 -1 0 -11 9 -5 17 -16 17 -24 0 -24 -22 -29
-37 -9 -14 19 -15 19 -11 -1 2 -11 12 -21 24 -23 26 -4 49 22 39 45 -4 10 -8
29 -9 43 -1 25 -33 40 -49 24z"/>
<path d="M5061 2021 c-16 -10 -19 -87 -3 -103 32 -32 74 28 56 79 -10 30 -30
39 -53 24z m34 -52 c0 -32 -4 -44 -15 -44 -16 0 -26 54 -16 82 12 30 31 6 31
-38z"/>
<path d="M4348 1988 c-34 -45 -34 -48 -3 -48 17 0 25 -6 25 -17 0 -15 2 -14
14 3 8 10 11 21 6 24 -5 3 -10 21 -12 39 l-3 35 -27 -36z m22 -18 c0 -11 -7
-20 -15 -20 -18 0 -19 12 -3 28 16 16 18 15 18 -8z"/>
<path d="M4598 1953 c6 -2 18 -2 25 0 6 3 1 5 -13 5 -14 0 -19 -2 -12 -5z"/>
<path d="M563 1493 c-26 -10 -13 -43 22 -57 37 -16 45 -30 20 -40 -18 -6 -45
2 -45 15 0 5 -5 9 -10 9 -7 0 -7 -6 0 -20 18 -34 80 -23 80 15 0 16 -8 24 -32
31 -17 5 -33 15 -36 22 -7 21 27 26 48 7 21 -19 28 -7 8 13 -12 12 -33 14 -55
5z"/>
<path d="M850 1480 c0 -13 -5 -18 -15 -14 -21 8 -45 -14 -45 -41 0 -28 19 -45
48 -42 20 1 22 7 22 59 0 32 -2 58 -5 58 -3 0 -5 -9 -5 -20z m-6 -68 c-13 -20
-25 -20 -38 1 -7 10 -5 21 4 32 12 15 15 15 29 0 12 -12 13 -19 5 -33z"/>
<path d="M651 1420 c1 -43 1 -44 9 -13 4 18 13 39 19 47 10 12 9 15 -8 13 -18
-1 -21 -8 -20 -47z"/>
<path d="M712 1458 c-30 -30 -2 -86 38 -73 15 5 20 15 20 40 0 41 -32 59 -58
33z m43 -34 c0 -32 -21 -39 -38 -12 -8 12 -7 21 3 32 19 24 35 14 35 -20z"/>
<path d="M897 1464 c-4 -4 -7 -12 -7 -18 0 -6 5 -5 12 2 16 16 28 15 28 -2 0
-8 -10 -16 -22 -18 -15 -2 -23 -10 -23 -23 0 -16 7 -20 35 -21 l36 -1 -6 41
c-4 31 -10 42 -25 44 -12 2 -24 0 -28 -4z m33 -53 c0 -14 -18 -23 -30 -16 -6
4 -8 11 -5 16 8 12 35 12 35 0z"/>
<path d="M2014 1492 c-19 -12 -16 -102 3 -109 28 -11 48 11 48 53 1 55 -19 77
-51 56z m33 -17 c7 -20 -2 -29 -21 -22 -9 4 -13 13 -10 22 8 19 23 19 31 0z
m9 -46 c10 -17 -23 -46 -37 -32 -7 7 -9 19 -6 27 7 18 33 21 43 5z"/>
<path d="M2140 1481 c-14 -28 -13 -64 4 -87 22 -28 50 -7 54 40 5 58 -35 90
-58 47z m50 -40 c0 -14 -5 -33 -10 -41 -9 -13 -12 -12 -25 4 -18 23 -19 40 -4
67 14 27 39 8 39 -30z"/>
<path d="M2232 1488 c-7 -7 -12 -29 -12 -49 0 -73 62 -78 68 -5 5 54 -26 84
-56 54z m48 -48 c0 -9 -7 -25 -15 -36 -13 -16 -16 -17 -25 -4 -25 38 1 109 27
73 7 -9 13 -24 13 -33z"/>
<path d="M2642 1488 c-17 -17 -15 -83 4 -99 21 -17 49 0 49 32 0 20 -5 24 -27
24 -30 -1 -37 15 -14 34 10 8 16 9 21 1 3 -5 11 -10 17 -10 7 0 6 6 -2 15 -15
18 -32 19 -48 3z m43 -58 c4 -6 1 -18 -6 -26 -11 -13 -14 -13 -27 0 -8 8 -11
19 -8 25 9 14 33 14 41 1z"/>
<path d="M2770 1481 c-14 -28 -13 -64 4 -87 22 -28 50 -7 54 40 5 58 -35 90
-58 47z m50 -40 c0 -14 -5 -33 -10 -41 -9 -13 -12 -12 -25 4 -18 23 -19 40 -4
67 14 27 39 8 39 -30z"/>
<path d="M2860 1481 c-14 -28 -13 -64 4 -87 22 -28 50 -7 54 40 5 58 -35 90
-58 47z m50 -40 c0 -14 -5 -33 -10 -41 -9 -13 -12 -12 -25 4 -18 23 -19 40 -4
67 14 27 39 8 39 -30z"/>
<path d="M2560 1475 c-9 -10 -9 -15 -1 -15 6 0 11 -17 11 -40 0 -22 5 -40 10
-40 6 0 10 25 10 55 0 56 -8 67 -30 40z"/>
<path d="M2408 1423 c6 -2 18 -2 25 0 6 3 1 5 -13 5 -14 0 -19 -2 -12 -5z"/>
<path d="M2090 1390 c0 -5 5 -10 10 -10 6 0 10 5 10 10 0 6 -4 10 -10 10 -5 0
-10 -4 -10 -10z"/>
<path d="M2720 1390 c0 -5 5 -10 10 -10 6 0 10 5 10 10 0 6 -4 10 -10 10 -5 0
-10 -4 -10 -10z"/>
<path d="M4218 1493 c18 -3 32 -7 30 -11 -22 -40 -38 -86 -35 -95 3 -7 8 -3
12 8 5 17 19 47 43 98 2 4 -16 6 -40 5 -37 -1 -39 -2 -10 -5z"/>
<path d="M4420 1470 c0 -25 4 -29 22 -27 15 1 23 -4 26 -17 5 -25 -14 -44 -30
-28 -17 17 -33 15 -18 -3 30 -36 83 3 60 45 -6 11 -20 20 -31 20 -28 0 -19 23
12 31 21 6 21 7 -8 8 -30 1 -33 -2 -33 -29z"/>
<path d="M4756 1479 c-17 -16 -17 -19 -3 -19 11 0 17 -12 20 -42 3 -34 4 -30
5 20 1 34 1 62 0 61 -2 0 -12 -9 -22 -20z"/>
<path d="M4843 1494 c-18 -8 -27 -68 -14 -93 15 -27 47 -27 61 0 14 24 -2 49
-31 49 -11 0 -19 6 -19 14 0 22 19 29 37 14 14 -11 15 -11 11 2 -5 16 -25 22
-45 14z m34 -70 c8 -21 -13 -42 -28 -27 -13 13 -5 43 11 43 6 0 13 -7 17 -16z"/>
<path d="M4967 1494 c-4 -4 -7 -14 -7 -23 0 -12 3 -11 13 4 8 10 19 15 25 11
18 -11 14 -36 -5 -36 -17 -1 -17 -1 0 -11 9 -5 17 -16 17 -24 0 -24 -22 -29
-37 -9 -14 19 -15 19 -11 -1 2 -11 12 -21 24 -23 26 -4 49 22 39 45 -4 10 -8
29 -9 43 -1 25 -33 40 -49 24z"/>
<path d="M5061 1491 c-16 -10 -19 -87 -3 -103 32 -32 74 28 56 79 -10 30 -30
39 -53 24z m34 -52 c0 -32 -4 -44 -15 -44 -16 0 -26 54 -16 82 12 30 31 6 31
-38z"/>
<path d="M4348 1458 c-34 -45 -34 -48 -3 -48 17 0 25 -6 25 -17 0 -15 2 -14
14 3 8 10 11 21 6 24 -5 3 -10 21 -12 39 l-3 35 -27 -36z m22 -18 c0 -11 -7
-20 -15 -20 -18 0 -19 12 -3 28 16 16 18 15 18 -8z"/>
<path d="M4598 1423 c6 -2 18 -2 25 0 6 3 1 5 -13 5 -14 0 -19 -2 -12 -5z"/>
<path d="M440 954 c-17 -20 -17 -68 0 -88 24 -30 80 -14 80 23 0 11 -6 9 -20
-7 -28 -30 -60 -14 -60 28 0 40 34 59 61 34 20 -18 27 -6 7 14 -17 17 -53 15
-68 -4z"/>
<path d="M1012 910 c0 -36 2 -56 5 -45 8 33 19 37 33 10 7 -14 17 -25 22 -25
5 0 1 13 -8 29 -15 25 -15 32 -5 45 8 9 9 16 3 16 -5 0 -16 -7 -23 -17 -13
-15 -15 -13 -20 18 -5 25 -6 16 -7 -31z"/>
<path d="M878 948 c-8 -24 8 -92 22 -96 12 -4 13 -2 3 9 -15 15 -17 66 -4 71
5 2 3 8 -4 15 -10 9 -15 9 -17 1z"/>
<path d="M558 932 l23 -7 -26 -34 c-14 -19 -25 -36 -25 -38 0 -2 17 -2 38 -2
23 1 28 3 15 6 -28 5 -28 11 -3 43 27 34 25 40 -12 39 -28 -1 -29 -2 -10 -7z"/>
<path d="M615 923 c3 -10 9 -30 12 -45 7 -37 20 -35 31 5 l9 32 7 -32 c4 -18
12 -33 16 -33 11 0 34 79 26 87 -6 6 -12 -7 -19 -42 -3 -15 -6 -13 -12 13 -4
17 -11 32 -16 32 -5 0 -13 -15 -18 -32 l-9 -33 -7 33 c-4 17 -12 32 -17 32 -6
0 -7 -8 -3 -17z"/>
<path d="M747 934 c-14 -14 -7 -26 8 -14 12 10 19 10 27 2 8 -8 7 -13 -5 -17
-9 -3 -24 -7 -33 -10 -8 -3 -14 -13 -12 -22 2 -13 14 -18 39 -19 l35 -2 -5 42
c-5 31 -11 42 -26 44 -12 2 -24 0 -28 -4z m41 -56 c-7 -19 -38 -22 -38 -4 0
10 9 16 21 16 12 0 19 -5 17 -12z"/>
<path d="M820 894 c0 -24 5 -44 10 -44 6 0 10 15 10 33 0 18 4 37 10 43 6 6 3
10 -10 11 -17 2 -20 -4 -20 -43z"/>
<path d="M932 928 c-20 -20 -15 -66 8 -73 20 -6 56 12 45 23 -2 3 -11 -1 -19
-7 -8 -7 -20 -10 -26 -6 -20 12 -10 25 20 25 18 0 30 5 30 13 0 16 -20 37 -35
37 -6 0 -16 -5 -23 -12z m29 -26 c-28 -4 -40 6 -21 18 9 6 20 4 29 -3 12 -10
11 -13 -8 -15z"/>
<path d="M2014 962 c-19 -12 -16 -102 3 -109 28 -11 48 11 48 53 1 55 -19 77
-51 56z m33 -17 c7 -20 -2 -29 -21 -22 -9 4 -13 13 -10 22 8 19 23 19 31 0z
m9 -46 c10 -17 -23 -46 -37 -32 -7 7 -9 19 -6 27 7 18 33 21 43 5z"/>
<path d="M2140 951 c-14 -28 -13 -64 4 -87 22 -28 50 -7 54 40 5 58 -35 90
-58 47z m50 -40 c0 -14 -5 -33 -10 -41 -9 -13 -12 -12 -25 4 -18 23 -19 40 -4
67 14 27 39 8 39 -30z"/>
<path d="M2232 958 c-7 -7 -12 -29 -12 -49 0 -73 62 -78 68 -5 5 54 -26 84
-56 54z m48 -48 c0 -9 -7 -25 -15 -36 -13 -16 -16 -17 -25 -4 -25 38 1 109 27
73 7 -9 13 -24 13 -33z"/>
<path d="M2636 954 c-12 -30 -7 -46 13 -39 10 3 24 -1 31 -10 11 -13 11 -19
-3 -32 -14 -14 -18 -14 -33 -2 -15 12 -17 12 -12 -1 6 -20 48 -19 61 1 13 21
2 50 -23 56 -29 8 -24 31 8 36 26 4 26 4 -4 6 -21 0 -34 -5 -38 -15z"/>
<path d="M2772 958 c-19 -19 -14 -33 6 -15 10 10 22 17 25 17 13 0 7 -40 -5
-40 -7 0 -5 -5 5 -11 22 -13 22 -38 1 -46 -11 -4 -22 1 -31 13 -14 19 -15 19
-11 -1 2 -15 11 -20 33 -20 29 0 30 2 32 50 2 60 -24 84 -55 53z"/>
<path d="M2860 951 c-14 -28 -13 -64 4 -87 22 -28 50 -7 54 40 5 58 -35 90
-58 47z m50 -40 c0 -14 -5 -33 -10 -41 -9 -13 -12 -12 -25 4 -18 23 -19 40 -4
67 14 27 39 8 39 -30z"/>
<path d="M2560 945 c-9 -10 -9 -15 -1 -15 6 0 11 -17 11 -40 0 -22 5 -40 10
-40 6 0 10 25 10 55 0 56 -8 67 -30 40z"/>
<path d="M2408 893 c6 -2 18 -2 25 0 6 3 1 5 -13 5 -14 0 -19 -2 -12 -5z"/>
<path d="M2090 860 c0 -5 5 -10 10 -10 6 0 10 5 10 10 0 6 -4 10 -10 10 -5 0
-10 -4 -10 -10z"/>
<path d="M2720 860 c0 -5 5 -10 10 -10 6 0 10 5 10 10 0 6 -4 10 -10 10 -5 0
-10 -4 -10 -10z"/>
<path d="M4218 963 c18 -3 32 -7 30 -11 -22 -40 -38 -86 -35 -95 3 -7 8 -3 12
8 5 17 19 47 43 98 2 4 -16 6 -40 5 -37 -1 -39 -2 -10 -5z"/>
<path d="M4420 940 c0 -25 4 -29 22 -27 15 1 23 -4 26 -17 5 -25 -14 -44 -30
-28 -17 17 -33 15 -18 -3 30 -36 83 3 60 45 -6 11 -20 20 -31 20 -28 0 -19 23
12 31 21 6 21 7 -8 8 -30 1 -33 -2 -33 -29z"/>
<path d="M4756 949 c-17 -16 -17 -19 -3 -19 11 0 17 -12 20 -42 3 -34 4 -30 5
20 1 34 1 62 0 61 -2 0 -12 -9 -22 -20z"/>
<path d="M4843 964 c-18 -8 -27 -68 -14 -93 15 -27 47 -27 61 0 14 24 -2 49
-31 49 -11 0 -19 6 -19 14 0 22 19 29 37 14 14 -11 15 -11 11 2 -5 16 -25 22
-45 14z m34 -70 c8 -21 -13 -42 -28 -27 -13 13 -5 43 11 43 6 0 13 -7 17 -16z"/>
<path d="M4967 964 c-4 -4 -7 -14 -7 -23 0 -12 3 -11 13 4 8 10 19 15 25 11
18 -11 14 -36 -5 -36 -17 -1 -17 -1 0 -11 9 -5 17 -16 17 -24 0 -24 -22 -29
-37 -9 -14 19 -15 19 -11 -1 2 -11 12 -21 24 -23 26 -4 49 22 39 45 -4 10 -8
29 -9 43 -1 25 -33 40 -49 24z"/>
<path d="M5061 961 c-16 -10 -19 -87 -3 -103 32 -32 74 28 56 79 -10 30 -30
39 -53 24z m34 -52 c0 -32 -4 -44 -15 -44 -16 0 -26 54 -16 82 12 30 31 6 31
-38z"/>
<path d="M4348 928 c-34 -45 -34 -48 -3 -48 17 0 25 -6 25 -17 0 -15 2 -14 14
3 8 10 11 21 6 24 -5 3 -10 21 -12 39 l-3 35 -27 -36z m22 -18 c0 -11 -7 -20
-15 -20 -18 0 -19 12 -3 28 16 16 18 15 18 -8z"/>
<path d="M4598 893 c6 -2 18 -2 25 0 6 3 1 5 -13 5 -14 0 -19 -2 -12 -5z"/>
<path d="M540 380 c0 -33 4 -60 10 -60 6 0 10 11 10 24 0 19 6 25 26 28 63 7
51 68 -12 68 l-34 0 0 -60z m65 25 c0 -13 -8 -21 -22 -23 -19 -3 -23 1 -23 23
0 22 4 26 23 23 14 -2 22 -10 22 -23z"/>
<path d="M902 380 c0 -48 2 -59 8 -42 12 27 27 28 35 2 3 -11 11 -20 16 -20 5
0 2 14 -6 31 -14 25 -14 33 -3 47 11 15 10 15 -8 0 -28 -24 -32 -23 -37 15 -2
17 -4 3 -5 -33z"/>
<path d="M768 419 c-7 -20 6 -92 17 -96 8 -2 11 41 6 100 -1 11 -19 8 -23 -4z"/>
<path d="M653 365 c0 -27 2 -38 4 -22 2 15 2 37 0 50 -2 12 -4 0 -4 -28z"/>
<path d="M687 403 c-14 -13 -7 -25 8 -13 8 6 19 9 25 5 17 -11 11 -23 -12 -27
-15 -2 -23 -10 -23 -23 0 -16 6 -20 28 -18 20 1 27 -2 25 -14 -2 -9 4 -18 12
-20 12 -4 12 -3 1 5 -8 6 -9 12 -3 16 6 3 9 14 7 24 -14 69 -16 72 -39 72 -12
0 -26 -3 -29 -7z m43 -52 c0 -14 -18 -23 -30 -16 -6 4 -8 11 -5 16 8 12 35 12
35 0z"/>
<path d="M818 384 c-9 -18 -9 -30 -1 -42 13 -21 55 -22 61 -2 4 13 3 13 -11 2
-9 -8 -21 -11 -27 -7 -20 12 -10 25 20 25 33 0 35 3 20 31 -15 27 -48 24 -62
-7z m50 -2 c2 -7 -6 -12 -17 -12 -21 0 -27 11 -14 24 9 9 26 2 31 -12z"/>
<path d="M2014 432 c-19 -12 -16 -102 3 -109 28 -11 48 11 48 53 1 55 -19 77
-51 56z m33 -17 c7 -20 -2 -29 -21 -22 -9 4 -13 13 -10 22 8 19 23 19 31 0z
m9 -46 c10 -17 -23 -46 -37 -32 -7 7 -9 19 -6 27 7 18 33 21 43 5z"/>
<path d="M2140 421 c-14 -28 -13 -64 4 -87 22 -28 50 -7 54 40 5 58 -35 90
-58 47z m50 -40 c0 -14 -5 -33 -10 -41 -9 -13 -12 -12 -25 4 -18 23 -19 40 -4
67 14 27 39 8 39 -30z"/>
<path d="M2232 428 c-7 -7 -12 -29 -12 -49 0 -73 62 -78 68 -5 5 54 -26 84
-56 54z m48 -48 c0 -9 -7 -25 -15 -36 -13 -16 -16 -17 -25 -4 -25 38 1 109 27
73 7 -9 13 -24 13 -33z"/>
<path d="M2636 424 c-12 -30 -7 -46 13 -39 10 3 24 -1 31 -10 11 -13 11 -19
-3 -32 -14 -14 -18 -14 -33 -2 -15 12 -17 12 -12 -1 6 -20 48 -19 61 1 13 21
2 50 -23 56 -29 8 -24 31 8 36 26 4 26 4 -4 6 -21 0 -34 -5 -38 -15z"/>
<path d="M2772 428 c-19 -19 -14 -33 6 -15 10 10 22 17 25 17 13 0 7 -40 -5
-40 -7 0 -5 -5 5 -11 22 -13 22 -38 1 -46 -11 -4 -22 1 -31 13 -14 19 -15 19
-11 -1 2 -15 11 -20 33 -20 29 0 30 2 32 50 2 60 -24 84 -55 53z"/>
<path d="M2860 421 c-14 -28 -13 -64 4 -87 22 -28 50 -7 54 40 5 58 -35 90
-58 47z m50 -40 c0 -14 -5 -33 -10 -41 -9 -13 -12 -12 -25 4 -18 23 -19 40 -4
67 14 27 39 8 39 -30z"/>
<path d="M2560 415 c-9 -10 -9 -15 -1 -15 6 0 11 -17 11 -40 0 -22 5 -40 10
-40 6 0 10 25 10 55 0 56 -8 67 -30 40z"/>
<path d="M2408 363 c6 -2 18 -2 25 0 6 3 1 5 -13 5 -14 0 -19 -2 -12 -5z"/>
<path d="M2090 330 c0 -5 5 -10 10 -10 6 0 10 5 10 10 0 6 -4 10 -10 10 -5 0
-10 -4 -10 -10z"/>
<path d="M2720 330 c0 -5 5 -10 10 -10 6 0 10 5 10 10 0 6 -4 10 -10 10 -5 0
-10 -4 -10 -10z"/>
<path d="M4218 433 c18 -3 32 -7 30 -11 -22 -40 -38 -86 -35 -95 3 -7 8 -3 12
8 5 17 19 47 43 98 2 4 -16 6 -40 5 -37 -1 -39 -2 -10 -5z"/>
<path d="M4420 410 c0 -25 4 -29 22 -27 15 1 23 -4 26 -17 5 -25 -14 -44 -30
-28 -17 17 -33 15 -18 -3 30 -36 83 3 60 45 -6 11 -20 20 -31 20 -28 0 -19 23
12 31 21 6 21 7 -8 8 -30 1 -33 -2 -33 -29z"/>
<path d="M4756 419 c-17 -16 -17 -19 -3 -19 11 0 17 -12 20 -42 3 -34 4 -30 5
20 1 34 1 62 0 61 -2 0 -12 -9 -22 -20z"/>
<path d="M4843 434 c-18 -8 -27 -68 -14 -93 15 -27 47 -27 61 0 14 24 -2 49
-31 49 -11 0 -19 6 -19 14 0 22 19 29 37 14 14 -11 15 -11 11 2 -5 16 -25 22
-45 14z m34 -70 c8 -21 -13 -42 -28 -27 -13 13 -5 43 11 43 6 0 13 -7 17 -16z"/>
<path d="M4967 434 c-4 -4 -7 -14 -7 -23 0 -12 3 -11 13 4 8 10 19 15 25 11
18 -11 14 -36 -5 -36 -17 -1 -17 -1 0 -11 9 -5 17 -16 17 -24 0 -24 -22 -29
-37 -9 -14 19 -15 19 -11 -1 2 -11 12 -21 24 -23 26 -4 49 22 39 45 -4 10 -8
29 -9 43 -1 25 -33 40 -49 24z"/>
<path d="M5061 431 c-16 -10 -19 -87 -3 -103 32 -32 74 28 56 79 -10 30 -30
39 -53 24z m34 -52 c0 -32 -4 -44 -15 -44 -16 0 -26 54 -16 82 12 30 31 6 31
-38z"/>
<path d="M4348 398 c-34 -45 -34 -48 -3 -48 17 0 25 -6 25 -17 0 -15 2 -14 14
3 8 10 11 21 6 24 -5 3 -10 21 -12 39 l-3 35 -27 -36z m22 -18 c0 -11 -7 -20
-15 -20 -18 0 -19 12 -3 28 16 16 18 15 18 -8z"/>
<path d="M4598 363 c6 -2 18 -2 25 0 6 3 1 5 -13 5 -14 0 -19 -2 -12 -5z"/>
</g>
</svg>
