<svg width="1075" height="585" viewBox="0 0 1075 585" fill="none" xmlns="http://www.w3.org/2000/svg">
<rect width="1075" height="585" fill="#E5E5E5"/>
<g id="undraw_page_not_found_su7k 1" clip-path="url(#clip0)">
<path id="Vector" d="M540.643 584.231C831.974 584.231 1068.14 568.596 1068.14 549.309C1068.14 530.023 831.974 514.388 540.643 514.388C249.313 514.388 13.1435 530.023 13.1435 549.309C13.1435 568.596 249.313 584.231 540.643 584.231Z" fill="#F2F2F2"/>
<g id="left-right">
<path id="Vector_2" d="M321.311 433.517H285.777V328.877C285.777 323.32 283.569 317.989 279.639 314.059C275.709 310.129 270.379 307.922 264.821 307.922H256.495C253.743 307.922 251.018 308.464 248.475 309.517C245.933 310.57 243.623 312.113 241.677 314.059C239.731 316.005 238.187 318.315 237.134 320.858C236.081 323.4 235.539 326.125 235.539 328.877V433.517H135.309C133.247 433.517 131.22 432.984 129.425 431.97C127.629 430.955 126.127 429.494 125.062 427.728C123.998 425.962 123.408 423.951 123.35 421.89C123.292 419.829 123.768 417.788 124.731 415.965L230.814 215.184C232.136 212.681 232.938 209.936 233.17 207.114C233.402 204.293 233.061 201.453 232.165 198.768C231.27 196.082 229.84 193.605 227.961 191.487C226.082 189.37 223.793 187.654 221.233 186.445L214.971 183.488C210.108 181.192 204.549 180.853 199.444 182.541C194.338 184.23 190.077 187.816 187.542 192.558L58.1602 434.591C55.957 438.712 54.8043 443.314 54.8043 447.987V447.987C54.8043 451.719 55.5393 455.414 56.9673 458.861C58.3954 462.309 60.4885 465.441 63.1271 468.08C65.7658 470.719 68.8983 472.812 72.3459 474.24C75.7935 475.668 79.4885 476.403 83.2202 476.403H235.539V542.57C235.539 545.869 236.189 549.135 237.451 552.183C238.713 555.23 240.564 557.999 242.896 560.332C245.229 562.664 247.998 564.515 251.045 565.777C254.093 567.039 257.359 567.689 260.658 567.689H260.658C263.957 567.689 267.223 567.039 270.271 565.777C273.318 564.515 276.087 562.664 278.42 560.332C280.752 557.999 282.603 555.23 283.865 552.183C285.127 549.135 285.777 545.869 285.777 542.57V476.403H321.311C326.998 476.403 332.452 474.144 336.474 470.122C340.495 466.101 342.754 460.647 342.754 454.96V454.96C342.754 449.273 340.495 443.819 336.474 439.797C332.453 435.776 326.998 433.517 321.311 433.517V433.517Z" fill="#5EC79B"/>
<path id="Vector_3" d="M331.114 421.264H295.58V316.624C295.58 313.872 295.038 311.147 293.984 308.605C292.931 306.062 291.388 303.752 289.442 301.806C287.496 299.86 285.186 298.317 282.643 297.263C280.101 296.21 277.376 295.668 274.624 295.668H266.297C260.74 295.668 255.409 297.876 251.479 301.806C247.549 305.736 245.341 311.066 245.341 316.624V421.264H145.111C143.049 421.264 141.023 420.731 139.227 419.716C137.432 418.702 135.929 417.241 134.865 415.475C133.801 413.709 133.211 411.698 133.153 409.637C133.095 407.576 133.571 405.535 134.534 403.712L240.616 202.931C241.939 200.428 242.74 197.683 242.973 194.861C243.205 192.04 242.863 189.2 241.968 186.514C241.072 183.828 239.642 181.352 237.763 179.234C235.884 177.116 233.596 175.401 231.036 174.192L224.773 171.235C219.911 168.939 214.352 168.6 209.246 170.288C204.141 171.976 199.879 175.563 197.344 180.305L67.9627 422.338C65.7595 426.459 64.6069 431.06 64.6069 435.734V435.734C64.6069 443.27 67.6007 450.498 72.9297 455.827C78.2587 461.156 85.4864 464.15 93.0227 464.15H245.341V530.317C245.341 533.616 245.991 536.882 247.254 539.93C248.516 542.977 250.366 545.746 252.699 548.079C255.031 550.411 257.8 552.262 260.848 553.524C263.895 554.786 267.162 555.436 270.46 555.436H270.461C277.122 555.436 283.512 552.789 288.222 548.079C292.933 543.368 295.58 536.979 295.58 530.317V464.15H331.114C333.93 464.15 336.718 463.595 339.32 462.517C341.921 461.44 344.285 459.86 346.276 457.869C348.268 455.878 349.847 453.514 350.925 450.913C352.002 448.311 352.557 445.523 352.557 442.707V442.707C352.557 439.891 352.002 437.102 350.925 434.501C349.847 431.899 348.268 429.535 346.276 427.544C344.285 425.553 341.921 423.973 339.32 422.896C336.718 421.818 333.93 421.264 331.114 421.264V421.264Z" stroke="#3F3D56" stroke-miterlimit="10"/>
</g>
<g id="right-4">
<path id="Vector_4" d="M979.308 433.517H943.774V328.877C943.774 323.32 941.566 317.989 937.636 314.059C933.706 310.129 928.376 307.922 922.818 307.922H914.491C911.739 307.922 909.014 308.464 906.472 309.517C903.929 310.57 901.619 312.113 899.673 314.059C897.727 316.005 896.184 318.315 895.131 320.858C894.077 323.4 893.535 326.125 893.535 328.877V433.517H793.305C791.243 433.517 789.216 432.984 787.421 431.97C785.626 430.955 784.123 429.494 783.059 427.728C781.995 425.962 781.405 423.951 781.347 421.89C781.289 419.829 781.764 417.788 782.728 415.965L888.81 215.184C890.133 212.681 890.934 209.936 891.167 207.114C891.399 204.293 891.057 201.453 890.162 198.768C889.266 196.082 887.836 193.605 885.957 191.487C884.078 189.37 881.79 187.654 879.23 186.445L872.967 183.488C868.105 181.192 862.546 180.853 857.44 182.541C852.334 184.23 848.073 187.816 845.538 192.558L716.157 434.591C713.953 438.712 712.801 443.314 712.801 447.987V447.987C712.801 455.523 715.795 462.751 721.124 468.08C726.453 473.409 733.68 476.403 741.217 476.403H893.535V542.57C893.535 549.232 896.182 555.621 900.893 560.332C905.603 565.043 911.992 567.689 918.654 567.689V567.689C925.316 567.689 931.706 565.043 936.416 560.332C941.127 555.621 943.773 549.232 943.773 542.57V476.403H979.308C984.995 476.403 990.449 474.144 994.47 470.122C998.492 466.101 1000.75 460.647 1000.75 454.96V454.96C1000.75 449.273 998.492 443.819 994.47 439.797C990.449 435.776 984.995 433.517 979.308 433.517Z" fill="#5EC79B"/>
<path id="Vector_5" d="M997.688 421.264H962.153V316.624C962.153 311.066 959.945 305.736 956.016 301.806C952.086 297.876 946.755 295.668 941.197 295.668H932.871C930.119 295.668 927.394 296.21 924.852 297.263C922.309 298.317 919.999 299.86 918.053 301.806C916.107 303.752 914.564 306.062 913.51 308.605C912.457 311.147 911.915 313.872 911.915 316.624V421.264H811.685C809.623 421.264 807.596 420.731 805.801 419.716C804.006 418.702 802.503 417.241 801.439 415.475C800.374 413.709 799.785 411.698 799.727 409.637C799.669 407.576 800.144 405.535 801.108 403.712L907.19 202.931C908.512 200.428 909.314 197.683 909.546 194.861C909.779 192.04 909.437 189.2 908.542 186.514C907.646 183.828 906.216 181.352 904.337 179.234C902.458 177.116 900.17 175.401 897.61 174.192L891.347 171.235C886.485 168.939 880.925 168.6 875.82 170.288C870.714 171.976 866.453 175.563 863.918 180.305L734.536 422.338C732.333 426.459 731.181 431.06 731.181 435.734C731.181 443.27 734.174 450.498 739.503 455.827C744.832 461.156 752.06 464.15 759.596 464.15H911.915V530.317C911.915 536.979 914.562 543.368 919.272 548.079C923.983 552.789 930.372 555.436 937.034 555.436V555.436C943.696 555.436 950.085 552.789 954.796 548.079C959.507 543.368 962.153 536.979 962.153 530.317V464.15H997.688C1000.5 464.15 1003.29 463.595 1005.89 462.517C1008.49 461.44 1010.86 459.86 1012.85 457.869C1014.84 455.878 1016.42 453.514 1017.5 450.913C1018.58 448.311 1019.13 445.523 1019.13 442.707V442.707C1019.13 437.02 1016.87 431.565 1012.85 427.544C1008.83 423.523 1003.37 421.264 997.688 421.264V421.264Z" stroke="#3F3D56" stroke-miterlimit="10"/>
</g>
<g id="center-number">
<path id="Vector_6" d="M520.426 167.01C434.482 167.01 372.775 222.149 372.775 350.808C372.775 496.621 434.482 535.218 520.426 535.218C606.37 535.218 671.753 492.945 671.753 350.808C671.753 198.868 606.37 167.01 520.426 167.01ZM520.991 486.818C461.464 486.818 430.365 451.895 430.365 350.902C430.365 261.79 462.737 214.797 522.264 214.797C581.791 214.797 614.163 245.665 614.163 350.902C614.163 449.349 580.517 486.818 520.991 486.818Z" fill="#2F2E41"/>
<path id="Vector_7" d="M540.031 155.982C454.087 155.982 392.38 211.121 392.38 339.78C392.38 485.593 454.087 524.19 540.031 524.19C625.975 524.19 691.358 481.917 691.358 339.78C691.358 187.84 625.975 155.982 540.031 155.982ZM540.596 475.79C481.069 475.79 449.97 440.867 449.97 339.874C449.97 250.762 482.342 203.769 541.869 203.769C601.396 203.769 633.768 234.637 633.768 339.874C633.768 438.321 600.123 475.79 540.596 475.79V475.79Z" stroke="#3F3D56" stroke-miterlimit="10"/>
<path id="Vector_8" d="M471.141 31.1516C478.266 31.1516 484.042 25.3756 484.042 18.2505C484.042 11.1253 478.266 5.34927 471.141 5.34927C464.016 5.34927 458.24 11.1253 458.24 18.2505C458.24 25.3756 464.016 31.1516 471.141 31.1516Z" fill="#2F2E41"/>
<path id="Vector_9" d="M502.607 93.7695C522.592 93.7695 538.794 72.7785 538.794 46.8848C538.794 20.991 522.592 0 502.607 0C482.622 0 466.421 20.991 466.421 46.8848C466.421 72.7785 482.622 93.7695 502.607 93.7695Z" fill="#2F2E41"/>
<path id="Vector_10" opacity="0.1" d="M502.607 79.6097C484.48 79.6097 469.466 62.3392 466.832 39.8048C466.558 42.1548 466.421 44.5188 466.421 46.8848C466.421 72.7785 482.622 93.7695 502.607 93.7695C522.592 93.7695 538.794 72.7785 538.794 46.8848C538.794 44.5188 538.657 42.1548 538.383 39.8048C535.749 62.3392 520.735 79.6097 502.607 79.6097Z" fill="black"/>
<path id="Vector_11" d="M576.242 184.189C575.465 187.382 572.114 189.94 568.403 191.727C560.602 195.483 550.978 196.605 541.644 196.981C539.262 197.126 536.873 197.081 534.499 196.849C529.898 196.404 525.582 194.42 522.249 191.217C522.011 191.062 521.816 190.849 521.683 190.599C521.549 190.348 521.481 190.067 521.486 189.783C521.49 189.499 521.566 189.221 521.707 188.975C521.849 188.728 522.05 188.521 522.292 188.374C527.262 182.915 535.555 179.567 543.909 177.157C550.243 175.33 561.29 170.597 568.199 171.235C574.89 171.854 577.223 180.157 576.242 184.189Z" fill="#3F3D56"/>
<path id="Vector_12" opacity="0.1" d="M576.242 184.189C575.465 187.382 572.114 189.94 568.403 191.727C560.602 195.483 550.978 196.605 541.644 196.981C539.262 197.126 536.873 197.081 534.499 196.849C529.898 196.404 525.582 194.42 522.249 191.217C522.011 191.062 521.816 190.849 521.683 190.599C521.549 190.348 521.481 190.067 521.486 189.783C521.49 189.499 521.566 189.221 521.707 188.975C521.849 188.728 522.05 188.521 522.292 188.374C527.262 182.915 535.555 179.567 543.909 177.157C550.243 175.33 561.29 170.597 568.199 171.235C574.89 171.854 577.223 180.157 576.242 184.189Z" fill="black"/>
<path id="Vector_13" d="M477.044 160.321C474.662 164.989 474.231 170.411 475.845 175.396C477.487 180.344 480.56 184.693 484.674 187.893C494.769 195.985 508.662 197.098 521.599 196.986C532.937 196.887 544.259 196.111 555.504 194.662C559.273 194.328 562.976 193.468 566.506 192.108C570.728 190.281 574.439 186.93 575.942 182.582C577.445 178.234 576.378 172.909 572.808 170.008C569.671 167.458 565.345 167.107 561.31 166.865L538.223 165.477C540.504 163.169 543.541 161.863 546.318 160.185C550.004 157.959 552.452 154.22 555.132 150.85C559.26 145.916 563.752 141.297 568.57 137.033C569.322 141.344 572.048 144.883 575.258 147.857C578.467 150.831 582.166 153.226 585.501 156.057C593.58 162.916 599.397 172.224 607.894 178.558C613.738 177.022 619.202 174.294 623.942 170.546L620.64 164.564C620.365 163.949 619.936 163.414 619.396 163.011C618.461 162.436 617.256 162.733 616.17 162.57C613.27 162.135 612.003 158.786 610.865 156.083C607.74 148.661 601.757 142.903 596.647 136.679C592.875 132.084 589.529 127.157 586.651 121.956C584.934 118.854 583.363 115.625 581.033 112.953C578.704 110.281 575.44 108.18 571.895 108.172C568.763 108.166 565.874 109.756 563.181 111.355C554.978 116.227 547.087 121.604 539.551 127.454C535.607 130.516 531.688 133.751 527.061 135.628C525.114 136.419 523.061 136.959 521.192 137.92C517.919 139.605 515.435 142.455 512.761 144.985C503.223 154.008 490.165 159.854 477.044 160.321Z" fill="#3F3D56"/>
<path id="Vector_14" d="M525.32 96.098C525.213 98.8561 524.626 101.575 523.586 104.131C523.059 105.407 522.275 106.56 521.282 107.518C520.29 108.477 519.111 109.221 517.818 109.704C515.983 110.196 514.059 110.258 512.195 109.887C510.57 109.717 509.004 109.183 507.614 108.326C505.449 106.837 504.369 104.182 503.976 101.583C503.583 98.9866 503.759 96.334 503.507 93.7191C503.262 91.6071 502.86 89.5162 502.305 87.4637C502.135 86.7808 501.962 86.1012 501.792 85.4215C501.626 84.7418 501.462 84.0622 501.311 83.3825C501.172 82.7437 501.043 82.1018 500.933 81.4568C500.842 80.9124 500.76 80.3649 500.7 79.8142C500.645 78.1817 500.373 76.5638 499.892 75.003C499.44 73.9908 498.874 73.0333 498.205 72.149C497.919 71.74 497.642 71.3309 497.387 70.9061C496.65 69.8022 496.307 68.4816 496.415 67.1585C496.445 66.9539 496.495 66.7527 496.563 66.5575C496.588 66.482 496.616 66.4065 496.648 66.3341C496.931 66.2572 497.191 66.1124 497.405 65.9123C497.62 65.7121 497.782 65.4626 497.878 65.1855C497.986 64.5902 497.935 63.9769 497.73 63.4077C497.495 62.6123 497.173 61.8451 496.77 61.12C496.506 60.6418 495.609 59.7796 495.603 59.232C495.59 58.1307 497.743 57.2434 498.614 56.8091C501.275 55.4769 504.242 54.8753 507.211 55.0659C509.115 55.1949 511.179 55.7802 512.23 57.3755C513.174 58.8135 513.048 60.6763 513.451 62.3472C513.493 62.5901 513.596 62.8184 513.75 63.0111C513.955 63.1983 514.213 63.317 514.489 63.351C514.955 63.4437 515.433 63.4628 515.905 63.4076H515.908C516.033 63.3977 516.157 63.3799 516.28 63.3541C517.015 63.2185 517.71 62.9184 518.312 62.4762C518.702 62.3724 519.096 62.2874 519.492 62.2213C519.508 62.2197 519.524 62.2165 519.539 62.2119C521.116 67.1867 521.32 72.5202 522.611 77.5863C523.249 80.1068 524.165 82.5958 524.294 85.1886C524.303 85.3018 524.307 85.4183 524.31 85.5347C524.329 86.3686 524.263 87.2087 524.297 88.0394C524.309 88.4135 524.351 88.786 524.423 89.1533C524.564 89.7441 524.74 90.3262 524.949 90.8966L524.958 90.9249C525.018 91.1074 525.074 91.2931 525.122 91.4787C525.156 91.614 525.188 91.7462 525.213 91.8815L525.216 91.8909C525.449 93.2813 525.484 94.6978 525.32 96.098V96.098Z" fill="#FBBEBE"/>
<path id="Vector_15" d="M503.237 63.5619C513.49 63.5619 521.802 55.25 521.802 44.9968C521.802 34.7436 513.49 26.4317 503.237 26.4317C492.983 26.4317 484.672 34.7436 484.672 44.9968C484.672 55.25 492.983 63.5619 503.237 63.5619Z" fill="#FBBEBE"/>
<path id="Vector_16" d="M621.103 146.148C620.565 141.083 618.765 136.234 615.867 132.045C616.349 134.909 616.831 137.771 617.315 140.632C616.714 140.806 616.075 140.801 615.477 140.617C614.879 140.433 614.347 140.079 613.948 139.597C613.166 138.621 612.568 137.511 612.182 136.321C610.073 131.085 607.315 126.135 603.973 121.586C592.154 120.601 580.471 115.702 570.077 109.99C559.681 104.282 549.952 97.4385 539.694 91.4882C537.915 90.4132 536.062 89.4668 534.149 88.6562C530.94 87.3692 527.337 86.7022 524.294 85.1886C524.089 85.0879 523.885 84.981 523.683 84.8708C522.996 84.497 522.345 84.0598 521.739 83.565C521.411 83.2989 521.1 83.0131 520.807 82.7091C519.289 80.9429 518.086 78.9292 517.249 76.7557C515.616 73.1434 515.033 68.7853 513.404 65.1729C514.153 64.4728 514.994 63.8789 515.905 63.4077H515.908C516.04 63.3385 516.172 63.2724 516.308 63.2094C516.953 62.9057 517.624 62.6603 518.312 62.4763C518.702 62.3724 519.096 62.2875 519.492 62.2214C519.508 62.2198 519.524 62.2166 519.539 62.212C521.378 61.9124 523.262 62.0614 525.03 62.6462C527.617 63.521 529.797 65.2673 531.972 66.9193C535.504 69.4079 538.892 72.0952 542.12 74.9684C543.913 76.6864 545.549 78.5744 547.478 80.1352C549.081 81.3722 550.771 82.4922 552.535 83.4863C562.972 89.704 573.411 95.9207 583.85 102.136C587.384 104.241 590.921 106.347 594.376 108.574C599.624 111.96 604.684 115.629 609.741 119.295C612.721 121.454 615.699 123.613 618.677 125.774C619.654 126.397 620.512 127.19 621.21 128.115C621.827 129.165 622.21 130.336 622.333 131.548C623.081 136.444 622.659 141.447 621.103 146.148V146.148Z" fill="#FBBEBE"/>
<path id="Vector_17" d="M529.923 110.06C528.671 115.676 522.994 119.072 520.027 124.005C516.339 130.129 517.843 137.246 519.228 144.26C516.698 146.441 514.167 148.622 511.635 150.802C510.238 152.001 508.841 153.206 507.337 154.267C505.144 155.736 502.852 157.052 500.477 158.206C498.237 159.358 495.996 160.511 493.756 161.664C491.673 162.835 489.466 163.77 487.176 164.452C482.762 165.585 478.073 164.792 473.706 163.48C473.191 163.345 472.695 163.143 472.233 162.879C471.961 162.716 471.723 162.501 471.534 162.246C471.104 161.474 470.947 160.579 471.091 159.707C471.534 152.357 473.331 145.16 475.122 138.017C476.079 133.732 477.365 129.527 478.97 125.44C480.544 121.938 482.353 118.547 484.385 115.289C486.628 111.191 489.285 107.333 492.315 103.776C493.79 102.407 495.031 100.806 495.99 99.0369C497.107 96.4882 496.676 93.5649 496.903 90.7896C497.076 88.7045 497.629 86.6686 498.536 84.7827V84.7796C499.02 83.7638 499.604 82.7983 500.279 81.8973C500.584 82.6084 500.889 83.3185 501.195 84.0275C501.396 84.4932 501.595 84.9579 501.792 85.4215C502.05 86.0194 502.306 86.6152 502.56 87.2088C503.293 88.9143 504.025 90.6187 504.757 92.3221C505.547 94.4675 506.672 96.4739 508.092 98.2661C508.741 99.1838 509.617 99.9176 510.634 100.396C511.651 100.874 512.775 101.08 513.895 100.994C515.016 100.908 516.095 100.533 517.028 99.9055C517.96 99.2779 518.714 98.4192 519.215 97.4133C520.273 95.5357 521.039 93.5081 521.487 91.4001C522.109 88.8335 522.194 86.1663 521.739 83.565C520.981 78.5556 518.85 73.4392 517.302 68.7853C516.672 67.2336 516.307 65.587 516.223 63.9143C516.226 63.7264 516.245 63.539 516.279 63.3542C516.289 63.307 516.298 63.2567 516.308 63.2095C516.953 62.9058 517.624 62.6604 518.312 62.4763C518.702 62.3725 519.096 62.2875 519.492 62.2214C520.855 69.5971 522.219 76.9728 523.586 84.3485C523.617 84.5216 523.652 84.6947 523.684 84.8709C523.879 85.9281 524.077 86.9854 524.297 88.0395C524.495 88.9961 524.709 89.9495 524.948 90.8967L524.958 90.925C525.04 91.246 525.125 91.5638 525.213 91.8816L525.216 91.891C525.458 92.7595 525.729 93.6216 526.034 94.4712C527.884 99.5908 531.11 104.745 529.923 110.06Z" fill="#5EC79B"/>
<path id="Vector_18" d="M605.267 188.993C605.209 190.075 605.419 191.154 605.877 192.136C607.039 194.259 609.827 194.742 612.24 194.941C626.332 196.099 640.51 195.667 654.505 193.653C655.265 193.601 656.001 193.372 656.657 192.985C658.647 191.59 657.42 188.19 655.247 187.102C653.074 186.013 650.496 186.276 648.112 185.804C645.743 185.208 643.488 184.23 641.434 182.908C636.599 180.13 631.835 177.234 627.141 174.22C624.346 172.425 621.048 170.51 617.901 171.574C609.376 174.458 605.211 179.796 605.267 188.993Z" fill="#3F3D56"/>
<path id="Vector_19" d="M501.383 82.9892V82.9923C501.361 83.1245 501.339 83.2535 501.311 83.3825C501.276 83.5965 501.235 83.8136 501.195 84.0275C500.804 86.0256 500.326 88.0143 499.775 89.9904C498.265 95.4498 496.242 100.821 494.234 106.114C488.847 120.305 483.459 134.497 478.07 148.691C476.711 152.265 475.354 155.843 473.809 159.345C473.293 160.513 472.762 161.689 472.233 162.879C470.339 167.136 468.52 171.532 467.916 176.063C467.353 179.045 467.288 182.1 467.724 185.103C468.328 188.074 470.131 190.975 472.954 192.073C474.332 192.611 476.305 193.332 475.927 194.764C475.723 195.55 474.829 195.934 474.027 196.066C472.967 196.235 471.883 196.169 470.852 195.872C469.821 195.575 468.868 195.055 468.061 194.348C466.553 193.011 465.395 190.931 463.391 190.708C462.003 190.557 460.726 191.387 459.454 191.969C454.269 194.339 448.227 192.681 442.781 190.997C443.208 188.791 445.424 187.338 447.623 186.897C449.823 186.453 452.098 186.768 454.341 186.708C455.06 186.747 455.773 186.563 456.383 186.183C456.931 185.68 457.315 185.025 457.485 184.301C458.93 180.019 460.005 175.621 460.697 171.155C461.421 166.488 461.723 161.749 462.755 157.139C463.558 153.543 464.797 150.06 465.861 146.529C467.918 139.26 469.606 131.892 470.921 124.452C471.585 121.362 472.061 118.233 472.346 115.085C472.526 112.473 472.441 109.849 472.692 107.246C473.115 103.861 473.821 100.517 474.804 97.2497C475.767 93.6845 476.728 90.1215 477.689 86.5606C479.115 81.29 480.644 75.8149 484.256 71.7179C485.511 70.2756 487.048 69.1064 488.773 68.2826C490.498 67.4588 492.374 66.998 494.285 66.9288C495.001 66.9279 495.715 67.0049 496.415 67.1585C496.531 67.1868 496.648 67.2151 496.764 67.2466C497.526 67.4459 498.258 67.7487 498.938 68.1465C500.052 67.4385 500.619 67.6871 501.358 68.779C502.006 69.9345 502.312 71.2509 502.239 72.5738C502.302 76.0655 502.015 79.5546 501.383 82.9892Z" fill="#FBBEBE"/>
<path id="Vector_20" d="M502.607 87.1616L502.56 87.2088L502.305 87.4637L499.775 89.9904L498.536 84.7827L494.285 66.9287C495.001 66.9279 495.715 67.0049 496.415 67.1584C496.445 66.9539 496.495 66.7527 496.563 66.5574L496.764 67.2465L498.205 72.149L500.933 81.4567L501.383 82.9891V82.9923L502.607 87.1616Z" fill="#5EC79B"/>
<path id="Vector_21" d="M518.661 30.2028C518.659 31.856 518.331 33.4926 517.696 35.019C517.061 36.5454 516.132 37.9317 514.961 39.0986C514.537 39.5234 514.082 39.9165 513.601 40.275C511.429 41.9119 508.784 42.7979 506.065 42.7991H490.969C487.633 42.794 484.436 41.4652 482.079 39.1047C479.722 36.7441 478.398 33.5447 478.398 30.2089C478.398 26.8732 479.722 23.6737 482.079 21.3132C484.436 18.9526 487.633 17.6239 490.969 17.6187H506.065C509.401 17.6274 512.598 18.9556 514.958 21.3134C517.318 23.6711 518.649 26.8668 518.661 30.2028V30.2028Z" fill="#2F2E41"/>
<path id="Vector_22" d="M532.815 31.1516C539.94 31.1516 545.716 25.3756 545.716 18.2505C545.716 11.1253 539.94 5.34927 532.815 5.34927C525.69 5.34927 519.914 11.1253 519.914 18.2505C519.914 25.3756 525.69 31.1516 532.815 31.1516Z" fill="#2F2E41"/>
<path id="Vector_23" opacity="0.1" d="M532.5 5.34927C532.342 5.34927 532.185 5.35556 532.028 5.36121C535.366 5.48254 538.526 6.89362 540.844 9.29756C543.162 11.7015 544.457 14.9109 544.457 18.2505C544.457 21.59 543.162 24.7994 540.844 27.2033C538.526 29.6073 535.366 31.0184 532.028 31.1397C532.185 31.1453 532.342 31.1516 532.5 31.1516C535.922 31.1516 539.203 29.7924 541.623 27.373C544.042 24.9535 545.401 21.6721 545.401 18.2505C545.401 14.8289 544.042 11.5474 541.623 9.12794C539.203 6.70851 535.922 5.34927 532.5 5.34927V5.34927Z" fill="black"/>
<path id="Vector_24" opacity="0.1" d="M471.141 5.34927C471.299 5.34927 471.456 5.35556 471.613 5.36121C468.276 5.48254 465.116 6.89362 462.797 9.29756C460.479 11.7015 459.184 14.9109 459.184 18.2505C459.184 21.59 460.479 24.7994 462.797 27.2033C465.116 29.6073 468.276 31.0184 471.613 31.1397C471.456 31.1453 471.299 31.1516 471.141 31.1516C467.721 31.1486 464.443 29.7881 462.026 27.3689C459.609 24.9498 458.251 21.6701 458.251 18.2505C458.251 14.8308 459.609 11.5511 462.026 9.13196C464.443 6.71284 467.721 5.35228 471.141 5.34927Z" fill="black"/>
<path id="Vector_25" opacity="0.1" d="M513.601 40.275C511.429 41.9119 508.784 42.7979 506.065 42.7991H490.969C488.25 42.7978 485.605 41.9119 483.433 40.275H513.601Z" fill="black"/>
<path id="Vector_26" d="M611.086 133.756C611.086 133.756 614.338 143.128 617.315 140.632L614.942 128.382L611.086 133.756Z" fill="#FBBEBE"/>
<path id="Vector_27" d="M480.946 341.116C490.335 341.116 497.946 331.266 497.946 319.116C497.946 306.965 490.335 297.116 480.946 297.116C471.557 297.116 463.946 306.965 463.946 319.116C463.946 331.266 471.557 341.116 480.946 341.116Z" fill="#2F2E41"/>
<path id="Vector_28" d="M573.446 341.616C582.835 341.616 590.446 331.766 590.446 319.616C590.446 307.465 582.835 297.616 573.446 297.616C564.057 297.616 556.446 307.465 556.446 319.616C556.446 331.766 564.057 341.616 573.446 341.616Z" fill="#2F2E41"/>
<path id="Vector_29" d="M560.446 384.616C560.446 394.556 546.566 402.616 529.446 402.616C512.326 402.616 498.446 394.556 498.446 384.616C498.446 376.006 508.856 368.806 522.766 367.046C524.981 366.753 527.212 366.61 529.446 366.616C533.189 366.603 536.922 367.006 540.576 367.816C552.196 370.406 560.446 376.956 560.446 384.616Z" fill="#2F2E41"/>
<path id="Vector_30" d="M484.946 336.116C494.335 336.116 501.946 326.266 501.946 314.116C501.946 301.965 494.335 292.116 484.946 292.116C475.557 292.116 467.946 301.965 467.946 314.116C467.946 326.266 475.557 336.116 484.946 336.116Z" stroke="#3F3D56" stroke-miterlimit="10"/>
<path id="Vector_31" d="M577.446 336.616C586.835 336.616 594.446 326.766 594.446 314.616C594.446 302.465 586.835 292.616 577.446 292.616C568.057 292.616 560.446 302.465 560.446 314.616C560.446 326.766 568.057 336.616 577.446 336.616Z" stroke="#3F3D56" stroke-miterlimit="10"/>
<path id="Vector_32" d="M533.446 397.616C550.567 397.616 564.446 389.557 564.446 379.616C564.446 369.674 550.567 361.616 533.446 361.616C516.325 361.616 502.446 369.674 502.446 379.616C502.446 389.557 516.325 397.616 533.446 397.616Z" stroke="#3F3D56" stroke-miterlimit="10"/>
<path id="Vector_33" d="M540.946 369.316C540.954 370.573 540.482 371.786 539.626 372.708C539.222 373.149 538.73 373.502 538.183 373.744C537.636 373.986 537.044 374.113 536.446 374.116H526.446C525.214 374.073 524.049 373.544 523.205 372.644C522.362 371.745 521.909 370.548 521.946 369.316C521.941 368.341 522.226 367.386 522.766 366.574C524.979 366.263 527.211 366.109 529.446 366.116C533.193 366.103 536.929 366.533 540.576 367.396C540.823 368.005 540.948 368.658 540.946 369.316V369.316Z" fill="white"/>
<path id="Vector_34" d="M484.946 313.116C487.707 313.116 489.946 310.877 489.946 308.116C489.946 305.354 487.707 303.116 484.946 303.116C482.185 303.116 479.946 305.354 479.946 308.116C479.946 310.877 482.185 313.116 484.946 313.116Z" fill="white"/>
<path id="Vector_35" d="M577.946 313.116C580.707 313.116 582.946 310.877 582.946 308.116C582.946 305.354 580.707 303.116 577.946 303.116C575.185 303.116 572.946 305.354 572.946 308.116C572.946 310.877 575.185 313.116 577.946 313.116Z" fill="white"/>
<path id="Vector_36" opacity="0.3" d="M582.946 360.116C585.707 360.116 587.946 357.877 587.946 355.116C587.946 352.354 585.707 350.116 582.946 350.116C580.185 350.116 577.946 352.354 577.946 355.116C577.946 357.877 580.185 360.116 582.946 360.116Z" fill="#5EC79B"/>
<path id="Vector_37" opacity="0.3" d="M460.946 360.116C463.707 360.116 465.946 357.877 465.946 355.116C465.946 352.354 463.707 350.116 460.946 350.116C458.185 350.116 455.946 352.354 455.946 355.116C455.946 357.877 458.185 360.116 460.946 360.116Z" fill="#5EC79B"/>
</g>
</g>
<defs>
<clipPath id="clip0">
<rect width="1074.39" height="584.231" fill="white"/>
</clipPath>
</defs>
</svg>
